<?xml version="1.0" encoding="utf-8"?>
<!-- Generator: Adobe Illustrator 15.0.0, SVG Export Plug-In . SVG Version: 6.00 Build 0)  -->
<!DOCTYPE svg PUBLIC "-//W3C//DTD SVG 1.1//EN" "http://www.w3.org/Graphics/SVG/1.1/DTD/svg11.dtd">
<svg version="1.1" id="圖層_1" xmlns="http://www.w3.org/2000/svg" xmlns:xlink="http://www.w3.org/1999/xlink" x="0px" y="0px"
	 width="600px" height="600px" viewBox="0 0 600 600" enable-background="new 0 0 600 600" xml:space="preserve">
<linearGradient id="SVGID_1_" gradientUnits="userSpaceOnUse" x1="988.6445" y1="-306.3418" x2="1311.1201" y2="-306.3418">
	<stop  offset="0" style="stop-color:#E83828"/>
	<stop  offset="0.0285" style="stop-color:#E33227"/>
	<stop  offset="0.1377" style="stop-color:#D52125"/>
	<stop  offset="0.2738" style="stop-color:#CA1624"/>
	<stop  offset="0.4646" style="stop-color:#C50F23"/>
	<stop  offset="0.9945" style="stop-color:#C30D23"/>
</linearGradient>
<path fill="url(#SVGID_1_)" stroke="#231815" stroke-width="2" stroke-miterlimit="10" d="M1222.94-140.708
	c40.294-16.434,94.504-55.417,87.576-175.168c0,0,0-174.773-186.974-154.457c0,0-157.876,20.723-132.041,219.229
	c0,0-2.628,73.16,79.142,110.373"/>
<linearGradient id="SVGID_2_" gradientUnits="userSpaceOnUse" x1="2189.3506" y1="-287.8823" x2="2474.3984" y2="-287.8823">
	<stop  offset="0" style="stop-color:#E83828"/>
	<stop  offset="0.0156" style="stop-color:#DB3626"/>
	<stop  offset="0.0666" style="stop-color:#B73221"/>
	<stop  offset="0.1241" style="stop-color:#972D1C"/>
	<stop  offset="0.1875" style="stop-color:#7B2A18"/>
	<stop  offset="0.2592" style="stop-color:#652715"/>
	<stop  offset="0.3429" style="stop-color:#542512"/>
	<stop  offset="0.4463" style="stop-color:#492310"/>
	<stop  offset="0.5915" style="stop-color:#42220F"/>
	<stop  offset="0.9945" style="stop-color:#40220F"/>
</linearGradient>
<path fill="url(#SVGID_2_)" stroke="#231815" stroke-width="2" stroke-miterlimit="10" d="M2383.826-131.391
	c35.63-14.531,96.268-76.927,90.142-182.819c0,0,0-154.545-165.332-136.579c0,0-139.603,18.323-116.759,193.854
	c0,0,21.396,100.508,93.703,133.414"/>
<path fill="#FEF0D5" stroke="#000000" stroke-width="2" stroke-miterlimit="10" d="M1931.95-811.173c0,0-0.396-33.604-12.213-38.33
	c-11.818-4.729,24.908-14.262,22.211,10.863c0,0,33.079-23.295,33.7-11.41c0,0,22.261-3.604,12.459,7.805
	c0,0,8.577,3.813-0.015,8.807c0,0-17.656,44.311-46.09,28.125l9.617,3.369c0,0-42.527,102.789-79.258,74.482
	c0,0-5.869-11.02,0.848-19.391C1873.21-746.853,1922.241-783.945,1931.95-811.173z"/>
<path fill="#FEF0D5" stroke="#000000" stroke-width="2" stroke-miterlimit="10" d="M2557.042-607.921
	c0,0,31.969-10.363,32.971-23.051c1.004-12.689,21.02,19.545-3.773,24.438c0,0,32.074,24.662,20.912,28.787
	c0,0,10.055,20.184-3.75,14.215c0,0-1.092,9.322-8.414,2.602c0,0-47.557-3.691-40.549-35.648l-0.361,10.184
	c0,0-110.783-10.061-94.67-53.545c0,0,8.777-8.877,18.766-4.951C2478.173-644.892,2528.161-609.099,2557.042-607.921z"/>
<path fill="#FEF0D5" stroke="#000000" stroke-width="2" stroke-miterlimit="10" d="M512.49,347.944c0,0,21.793-25.584,15.996-36.916
	c-5.797-11.33,28.145,5.629,9.594,22.791c0,0,40.242,4.189,32.898,13.555c0,0,19.143,11.92,4.258,14.072c0,0,3.957,8.51-5.803,6.625
	c0,0-42.434,21.783-53.219-9.104l5.033,8.859c0,0-99.621,49.498-108.691,4.021c0,0,2.822-12.162,13.387-14.053
	C425.943,357.796,487.275,362.077,512.49,347.944z"/>
<path fill="#FEF0D5" stroke="#000000" stroke-width="2" stroke-miterlimit="10" d="M1362.247-760.437
	c0,0-0.398-33.604-12.215-38.331c-11.816-4.729,24.908-14.262,22.211,10.865c0,0,33.08-23.296,33.701-11.412
	c0,0,22.262-3.604,12.459,7.805c0,0,8.576,3.813-0.016,8.807c0,0-17.656,44.311-46.09,28.123l9.619,3.371
	c0,0-42.529,102.789-79.26,74.48c0,0-5.869-11.018,0.848-19.389C1303.505-696.117,1352.536-733.208,1362.247-760.437z"/>
<path fill="#FEF0D5" stroke="#000000" stroke-width="2" stroke-miterlimit="10" d="M1547.992-711.833c0,0-7.333-4.906-15.203-11.365
	c0,0-23.902-23.621-19.097-35.408c4.805-11.789-27.56,8.02-7.608,23.527c0,0-39.732,7.621-31.615,16.322
	c0,0-18.052,13.516-3.033,14.385c0,0-3.214,8.82,6.348,6.104c0,0,43.15,18.365,52.244-13.631c0,0-5.09,11.043-9.729,14.42
	c0,0,108.523,42.834,103.592,7.832C1623.891-689.648,1575.462-700.685,1547.992-711.833z"/>
<path fill="#FEF0D5" stroke="#000000" stroke-width="2" stroke-miterlimit="10" d="M2169.119-759.276c0,0-6.146-6.331-12.489-14.294
	c0,0-18.435-28.098-11.272-38.62c7.166-10.522-28.625,2.08-12.359,21.417c0,0-40.446-0.856-34.327,9.351
	c0,0-20.48,9.441-5.975,13.432c0,0-4.99,7.955,4.93,7.296c0,0,38.355,26.984,53.939-2.402c0,0-7.288,9.733-12.529,12.064
	c0,0,97.166,64.581,99.662,29.323C2238.698-721.709,2193.65-742.628,2169.119-759.276z"/>
<path fill="#FEF0D5" stroke="#000000" stroke-width="2" stroke-miterlimit="10" d="M101.428,291.726c0,0-4.988-7.279-9.895-16.199
	c0,0-13.417-30.813-4.577-39.971c8.841-9.158-28.566-2.791-15.804,19.02c0,0-39.721-7.684-35.415,3.412
	c0,0-21.782,5.842-8.159,12.227c0,0-6.263,6.996,3.624,8.025c0,0,33.239,33.078,53.57,6.75c0,0-8.827,8.365-14.391,9.775
	c0,0,84.851,80.08,93.272,45.752C163.654,340.517,122.789,312.28,101.428,291.726z"/>
<path fill="#FEF0D5" stroke="#000000" stroke-width="2" stroke-miterlimit="10" d="M989.966-803.42c0,0-4.927-7.319-9.762-16.279
	c0,0-13.168-30.918-4.254-40.005c8.914-9.088-28.543-3.022-15.957,18.891c0,0-39.656-8.005-35.442,3.123
	c0,0-21.827,5.667-8.258,12.162c0,0-6.317,6.944,3.56,8.054c0,0,32.972,33.35,53.513,7.186c0,0-8.895,8.292-14.467,9.656
	c0,0,84.196,80.765,92.896,46.505C1051.794-754.128,1011.161-782.692,989.966-803.42z"/>
<path fill="#FEFFFF" stroke="#221714" stroke-width="2" stroke-miterlimit="10" d="M1647.898-623.525
	c-24.049-2.887-39.213-15.99-61.57-20.047c-1.318-0.211-2.631-0.465-3.958-0.678l36.142-66.184
	c22.482,4.41,43.519,10.387,65.854,8.928c44.397-2.879,85.824-20.643,129.776-21.012c14.34-13.273,28.47-29.42,40.667-47.986
	l58.796,59.027c-11.071,18.361-22.718,33.889-35.346,47.279c-10.122,10.752-34.891,24.074-39.423,38.277
	c-6.686,20.889-2.756,63.164-3.879,88.693c-0.885,20.803,2.635,10.633,1.734,30.428l-179.045-7.795
	C1659.28-562.029,1644.641-575.751,1647.898-623.525z"/>
<g>
	<path fill-rule="evenodd" clip-rule="evenodd" fill="#FEFFFF" stroke="#221714" stroke-miterlimit="10" d="M1813.282-655.404
		c5.774,3.172,10.52,9.861,9.799,18.668c-0.32,3.857-1.646,6.861-3.341,9.299c-3.399,4.852-9.802,8.961-18.091,8.209
		c-4.773-0.441-8.648-2.688-11.598-5.713c-2.847-2.951-5.178-6.814-5.514-11.773c-0.396-6.018,1.67-10.803,4.004-13.807
		c3.277-4.201,9.635-8.016,17.188-7.193C1808.604-657.406,1811.069-656.617,1813.282-655.404z M1805.25-655.818
		c-3.655-0.348-7.278,0.641-9.812,2.039c-4.906,2.734-9.872,8.395-8.996,17.379c0.735,7.695,7.449,14.529,15.381,15.262
		c10.473,0.973,18.551-6.381,19.354-15.613c0.635-7.215-2.665-12.555-6.782-15.734
		C1812.001-654.304,1809.147-655.464,1805.25-655.818z"/>
	<path fill-rule="evenodd" clip-rule="evenodd" fill="#FEFFFF" stroke="#221714" stroke-miterlimit="10" d="M1809.44-652.121
		c2.459,1.002,4.523,2.775,6.061,4.777c1.328,1.736,2.719,4.021,2.948,7.766c0.434,6.975-3.51,11.818-7.81,14.07
		c-9.277,4.824-21.271-1.85-21.103-13.186c0.091-6.74,4.4-11.715,9.394-13.576c1.688-0.629,4.645-0.869,6.717-0.641
		C1807.441-652.693,1808.464-652.505,1809.44-652.121z M1804.909-651.886c-0.047,2.377-0.074,4.779-0.102,7.162
		c0.766,0.008,1.557,0.025,2.332,0.033c0.009-1.322,0.036-2.625,0.064-3.947c8.74,1.969,9.393,16.334,1.159,19.291
		c0.259,1.09,0.839,1.85,1.132,2.918c1.715-0.693,3.254-1.707,4.422-2.992c4.258-4.701,4.532-12.783,0.406-17.809
		C1812.278-649.697,1809.007-651.568,1804.909-651.886z M1798.112-626.607c0.247-0.963,0.771-1.643,1.059-2.582
		c-0.57-0.936-1.688-1.201-2.451-1.951c-1.852-1.781-3.203-4.738-3.094-7.912c0.184-4.986,3.277-8.334,7.294-9.67
		c0.314,1.016,0.009,2.66,0.082,3.93c0.721,0.076,1.291,0.258,2.194,0.039c0.037-2.406,0.064-4.777,0.11-7.164
		c-6.134,0.088-11.826,5.441-12.573,11.357C1789.894-633.964,1793.192-629.039,1798.112-626.607z M1808.235-631.242
		c1.962-0.969,3.82-3.254,4.189-5.939c0.534-3.83-1.141-7.027-3.363-8.664c-0.128-0.131-0.274-0.234-0.447-0.299
		C1808.208-641.476,1808.427-636.16,1808.235-631.242z M1799.577-646.285c-5.252,2.016-5.463,12.748-0.223,14.891
		C1799.419-636.349,1799.501-641.31,1799.577-646.285z M1807.121-643.105c-0.803,0.016-1.557,0-2.331-0.012
		c-0.055,1.889-0.074,3.775-0.092,5.672c0.762,0.029,1.547,0.041,2.328,0.047C1807.054-639.312,1807.075-641.189,1807.121-643.105z
		 M1803.179-643.169c-0.738-0.008-1.475-0.012-2.195-0.012c-0.036,1.883-0.055,3.787-0.092,5.686c0.739,0,1.466,0.016,2.204,0.021
		C1803.104-639.357,1803.142-641.255,1803.179-643.169z M1807.009-635.802c-0.754,0.055-1.822-0.168-2.356,0.137
		c-0.009,1.885-0.036,3.768-0.046,5.662c0.986,0.109,1.557-0.234,2.328-0.391C1806.953-632.191,1806.989-634.011,1807.009-635.802z
		 M1803.068-635.867c-0.729-0.006-1.465-0.012-2.204-0.021c-0.027,1.797-0.045,3.594-0.063,5.387
		c0.718,0.178,1.235,0.535,2.183,0.477C1803.011-631.962,1803.028-633.898,1803.068-635.867z M1804.561-628.25
		c-0.009,1.023-0.03,2.055-0.049,3.074c1.429-0.01,2.692-0.205,3.669-0.674c-0.343-0.975-0.803-1.822-1.136-2.783
		C1806.181-628.533,1805.415-628.359,1804.561-628.25z M1800.92-628.74c-0.882,0.592-1.123,1.797-1.521,2.904
		c1.246,0.17,2.092,0.662,3.51,0.637c0.02-1.033,0.027-2.027,0.055-3.057C1802.293-628.441,1801.558-628.548,1800.92-628.74z"/>
</g>
<g>
	<path fill="#FEF0D5" stroke="#221714" stroke-width="2" stroke-miterlimit="10" d="M1754.624-665.289
		c-1.306-1.053-24.179-39.893-25.308-43.605l-2.777-21.436c12.226-1.053,23.435-3.104,33.686-5.918l2.637,20.334
		C1759.896-709.505,1757.554-662.91,1754.624-665.289z"/>
</g>
<path fill-rule="evenodd" clip-rule="evenodd" fill="#FEFFFF" stroke="#221714" stroke-width="2" stroke-miterlimit="10" d="
	M1704.71-704.9c0,0-7.443,17.65-10.132,23.234c-2.689,5.592,32.258-6.232,32.258-6.232l27.788,22.609l-25.308-43.605
	C1729.316-708.894,1714.191-712.708,1704.71-704.9z"/>
<path fill-rule="evenodd" clip-rule="evenodd" fill="#FEFFFF" stroke="#221714" stroke-width="2" stroke-miterlimit="10" d="
	M1704.71-704.9c0,0-7.443,17.65-10.132,23.234c-2.689,5.592,38.126-10.875,38.126-10.875l21.92,27.252l-25.308-43.605
	C1729.316-708.894,1714.191-712.708,1704.71-704.9z"/>
<path fill-rule="evenodd" clip-rule="evenodd" fill="#FEFFFF" stroke="#221714" stroke-width="2" stroke-miterlimit="10" d="
	M1801.786-717.839c0,0,9.635,16.559,13.025,21.762c3.391,5.207-32.807-2.074-32.807-2.074l-27.381,32.863l22.266-53.355
	C1776.89-718.644,1791.396-724.339,1801.786-717.839z"/>
<path fill-rule="evenodd" clip-rule="evenodd" fill="#FEFFFF" stroke="#221714" stroke-width="2" stroke-miterlimit="10" d="
	M1799.897-723.226c0,0,11.523,21.945,14.914,27.148c3.391,5.207-39.193-5.92-39.193-5.92l-20.994,36.709l8.237-50.625
	C1762.861-715.914,1789.509-729.718,1799.897-723.226z"/>
<path fill="#FEF0D5" stroke="#221714" stroke-width="2" stroke-miterlimit="10" d="M1831.185-821.462
	c24.832-1.482,25.883-45.502,15.143-60.791c-10.721-15.291-24.114,45.857-24.114,45.857L1831.185-821.462z"/>
<path fill="#FEF0D5" stroke="#221714" stroke-width="2" stroke-miterlimit="10" d="M1798.991-945.107
	c0,0-82.089-66.656-137.688,2.018c-33.558,41.455-40.742,75.813-38.697,106.207c-10.592-16.125-25.588-35.498-29.637-23.074
	c-6.465,19.787,8.996,66.297,35.912,59.813c17.014,47.369,73.706,83.313,121.087,74.67c21.488-3.883,75.34-35.564,81.291-82.287
	C1843.97-907.523,1815.157-931.333,1798.991-945.107z"/>
<g>
	<polygon fill="#FFFFFF" stroke="#221714" stroke-width="2" stroke-miterlimit="10" points="1667.317,-825.06 1667.217,-825.082 
		1624.053,-833.386 1624.251,-834.449 1667.336,-826.183 1797.942,-846.419 1824.34,-869.716 1825.051,-868.892 1798.431,-845.394 
		1798.263,-845.353 	"/>
</g>
<path fill="#FFFFFF" stroke="#221714" stroke-width="2" stroke-miterlimit="10" d="M1663.817-832.75
	c-1.429,10.482,6.14,20.174,16.925,21.643c10.779,1.482,20.679-5.871,22.104-16.357c1.41-10.492-6.143-20.184-16.934-21.658
	C1675.148-850.587,1665.246-843.275,1663.817-832.75z"/>
<g>
	<path fill="#221714" stroke="#221714" stroke-width="2" stroke-miterlimit="10" d="M1691.404-829.007
		c1.432,8.117-3.21,15.713-10.363,16.963c-7.11,1.256-14.045-4.348-15.454-12.459c-1.429-8.152,3.214-15.76,10.352-16.992
		C1683.064-842.73,1690.004-837.148,1691.404-829.007z"/>
	<path fill="#FFFFFF" stroke="#221714" stroke-width="2" stroke-miterlimit="10" d="M1678.143-830.501
		c0.362,2.031-0.992,3.977-3.019,4.311c-2.03,0.375-3.964-0.994-4.315-3.016c-0.351-2.045,1.001-3.967,3.03-4.328
		C1675.865-833.892,1677.791-832.525,1678.143-830.501z"/>
	<path fill="#FFFFFF" stroke="#221714" stroke-width="2" stroke-miterlimit="10" d="M1674.291-823.748
		c0.201,1.148-0.57,2.279-1.722,2.459c-1.181,0.219-2.276-0.564-2.483-1.738c-0.211-1.145,0.57-2.266,1.724-2.469
		C1672.987-825.701,1674.083-824.914,1674.291-823.748z"/>
</g>
<path fill="#FFFFFF" stroke="#221714" stroke-width="2" stroke-miterlimit="10" d="M1749.343-845.542
	c-1.428,10.492,6.158,20.203,16.932,21.66c10.775,1.465,20.669-5.846,22.1-16.35c1.426-10.508-6.167-20.203-16.934-21.678
	C1760.655-863.357,1750.769-856.031,1749.343-845.542z"/>
<g>
	<path fill="#221714" stroke="#221714" stroke-width="2" stroke-miterlimit="10" d="M1777.147-841.912
		c1.395,8.145-3.247,15.721-10.357,16.965c-7.147,1.264-14.075-4.348-15.484-12.455c-1.42-8.139,3.223-15.758,10.354-16.992
		C1768.779-855.626,1775.726-850.054,1777.147-841.912z"/>
	<path fill="#FFFFFF" stroke="#221714" stroke-width="2" stroke-miterlimit="10" d="M1763.888-843.392
		c0.332,2.029-1.022,3.947-3.049,4.318c-2.026,0.336-3.952-1-4.303-3.061c-0.357-2.014,0.991-3.943,3.029-4.299
		C1761.604-846.779,1763.519-845.421,1763.888-843.392z"/>
	<path fill="#FFFFFF" stroke="#221714" stroke-width="2" stroke-miterlimit="10" d="M1760.015-836.644
		c0.199,1.148-0.576,2.281-1.742,2.463c-1.163,0.211-2.262-0.566-2.457-1.74c-0.207-1.152,0.556-2.258,1.725-2.469
		C1758.706-838.576,1759.798-837.794,1760.015-836.644z"/>
</g>
<path fill="#221714" stroke="#221714" stroke-width="2" stroke-miterlimit="10" d="M1673.678-860.74c0,0-20.318,4.289-19.217,17.541
	c0,0-0.516,5.508,9.311-5.246c0,0,8.654-10.971,27.338-2.822C1709.792-843.134,1698.784-861.99,1673.678-860.74z"/>
<path fill="#221714" stroke="#221714" stroke-width="2" stroke-miterlimit="10" d="M1761.235-874.462c0,0,20.383-3.902,24.502,8.771
	c0,0,2.58,4.861-10.631-1.236c0,0-12.214-6.787-26.297,7.908C1734.706-844.289,1737.591-865.923,1761.235-874.462z"/>
<path fill="#FEF0D5" stroke="#221714" stroke-width="2" stroke-miterlimit="10" d="M1742.379-809.654c0,0-11.31-10.486-16.629,3.895
	c0,0-1.221,6.859,9.563,12.582"/>
<path fill="#FFFFFF" stroke="#221714" stroke-width="2" stroke-miterlimit="10" d="M1691.46-775.4c0,0,60.321,7.686,91.141-18.898
	C1782.601-794.298,1764.192-701.5,1691.46-775.4z"/>
<path fill="#221714" stroke="#221714" stroke-width="2" stroke-miterlimit="10" d="M1759.688-1045.478
	c-1.219-4.936-5.832-9.129-5.832-9.129c0.119,4.486-1.855,3.939-1.855,3.939s0.314,3.537-0.732,0.107
	c-1.028-3.463-21.708-16.145-14.117-10.529c3.967,2.922,4.803,8.441,4.693,13.031c-33.472,1.523-218.921,20.006-114.808,243.24
	c0,0-17.652-53.158,33.105-77.658c-0.922,2.727-2.506,6.699-5.065,12.482c0,0,48.386-25.244,91.137-23.961
	c0,0,57.779-2.299,61.76-33.486c0,0,29.281,86.539,20.035,113.773C1828.009-813.667,1928.151-1004.654,1759.688-1045.478z"/>
<path fill="#FFFFFF" stroke="#221714" stroke-width="2" stroke-miterlimit="10" d="M2441.817-618.525
	c35.166,88.945,63.031-37.617,63.031-37.617c-22.482,4.41-77.164-38.905-99.5-40.364c-44.398-2.878-85.825-20.643-129.776-21.011
	c-14.341-13.272-28.47-29.419-40.668-47.987l-58.796,59.028c11.072,18.362,22.718,33.89,35.346,47.279
	c10.123,10.752,34.891,24.072,39.424,38.275c6.686,20.889,2.755,63.166,3.878,88.697c0.886,20.801-2.634,10.633-1.733,30.426
	l179.045-7.795C2430.435-557.029,2445.073-570.753,2441.817-618.525z"/>
<g>
	<path fill-rule="evenodd" clip-rule="evenodd" fill="#FFFFFF" stroke="#221714" stroke-miterlimit="10" d="M2414.517-648.302
		c5.773,3.17,10.52,9.859,9.799,18.668c-0.32,3.857-1.648,6.859-3.342,9.297c-3.4,4.854-9.803,8.961-18.092,8.209
		c-4.771-0.441-8.648-2.688-11.596-5.713c-2.848-2.949-5.18-6.813-5.516-11.773c-0.396-6.018,1.67-10.803,4.004-13.805
		c3.279-4.203,9.635-8.018,17.188-7.193C2409.837-650.304,2412.304-649.517,2414.517-648.302z M2406.483-648.718
		c-3.656-0.348-7.279,0.641-9.811,2.039c-4.908,2.734-9.873,8.395-8.998,17.379c0.736,7.697,7.449,14.529,15.381,15.262
		c10.475,0.975,18.553-6.381,19.355-15.611c0.635-7.215-2.664-12.555-6.781-15.736
		C2413.233-647.205,2410.38-648.363,2406.483-648.718z"/>
	<path fill-rule="evenodd" clip-rule="evenodd" fill="#FFFFFF" stroke="#221714" stroke-miterlimit="10" d="M2410.675-645.019
		c2.459,1,4.521,2.773,6.059,4.775c1.328,1.736,2.721,4.023,2.949,7.768c0.434,6.973-3.51,11.816-7.811,14.068
		c-9.277,4.824-21.27-1.85-21.102-13.184c0.092-6.742,4.4-11.715,9.393-13.578c1.688-0.627,4.646-0.869,6.717-0.641
		C2408.675-645.593,2409.696-645.404,2410.675-645.019z M2406.142-644.787c-0.047,2.377-0.072,4.781-0.1,7.162
		c0.766,0.008,1.555,0.027,2.33,0.033c0.01-1.32,0.037-2.625,0.064-3.945c8.74,1.969,9.395,16.332,1.16,19.289
		c0.26,1.09,0.838,1.85,1.133,2.918c1.715-0.693,3.252-1.705,4.422-2.99c4.256-4.703,4.531-12.783,0.404-17.811
		C2413.511-642.595,2410.239-644.466,2406.142-644.787z M2399.345-619.505c0.248-0.965,0.773-1.643,1.061-2.582
		c-0.572-0.938-1.688-1.203-2.451-1.951c-1.854-1.781-3.205-4.738-3.096-7.912c0.184-4.986,3.279-8.334,7.295-9.672
		c0.314,1.016,0.01,2.662,0.082,3.93c0.721,0.076,1.291,0.258,2.195,0.041c0.035-2.408,0.063-4.779,0.109-7.166
		c-6.135,0.088-11.826,5.441-12.574,11.359C2391.128-626.865,2394.427-621.939,2399.345-619.505z M2409.468-624.142
		c1.963-0.967,3.822-3.254,4.189-5.939c0.535-3.828-1.141-7.027-3.361-8.664c-0.129-0.131-0.275-0.234-0.449-0.299
		C2409.44-634.375,2409.661-629.058,2409.468-624.142z M2400.812-639.185c-5.254,2.016-5.463,12.748-0.225,14.891
		C2400.651-629.248,2400.735-634.21,2400.812-639.185z M2408.354-636.003c-0.803,0.014-1.557,0-2.332-0.012
		c-0.055,1.889-0.072,3.773-0.092,5.672c0.764,0.027,1.547,0.041,2.328,0.047C2408.288-632.21,2408.31-634.087,2408.354-636.003z
		 M2404.411-636.068c-0.738-0.01-1.475-0.012-2.193-0.012c-0.037,1.881-0.055,3.785-0.092,5.684c0.738,0,1.465,0.016,2.203,0.021
		C2404.339-632.257,2404.374-634.156,2404.411-636.068z M2408.241-628.701c-0.754,0.055-1.822-0.168-2.355,0.137
		c-0.01,1.883-0.037,3.766-0.047,5.66c0.986,0.111,1.557-0.234,2.33-0.391C2408.187-625.091,2408.224-626.91,2408.241-628.701z
		 M2404.302-628.765c-0.729-0.006-1.465-0.012-2.203-0.021c-0.027,1.795-0.045,3.592-0.064,5.387
		c0.717,0.176,1.236,0.533,2.182,0.477C2404.243-624.863,2404.263-626.796,2404.302-628.765z M2405.794-621.148
		c-0.01,1.021-0.031,2.053-0.049,3.074c1.428-0.01,2.691-0.205,3.668-0.676c-0.342-0.973-0.803-1.822-1.135-2.783
		C2407.415-621.431,2406.649-621.259,2405.794-621.148z M2402.153-621.64c-0.883,0.592-1.123,1.799-1.52,2.906
		c1.244,0.168,2.09,0.662,3.51,0.635c0.018-1.031,0.027-2.027,0.055-3.055C2403.526-621.341,2402.792-621.447,2402.153-621.64z"/>
</g>
<g>
	<path fill="#FEF0D5" stroke="#221714" stroke-width="2" stroke-miterlimit="10" d="M2341.765-658.212
		c1.307-1.055,24.18-39.894,25.309-43.607l2.777-21.435c-12.225-1.053-23.435-3.104-33.686-5.917l-2.637,20.333
		C2336.495-702.43,2338.835-655.835,2341.765-658.212z"/>
</g>
<path fill-rule="evenodd" clip-rule="evenodd" fill="#FFFFFF" stroke="#221714" stroke-width="2" stroke-miterlimit="10" d="
	M2391.679-697.825c0,0,7.443,17.651,10.133,23.233c2.689,5.594-32.258-6.232-32.258-6.232l-27.789,22.611l25.309-43.607
	C2367.073-701.82,2382.198-705.634,2391.679-697.825z"/>
<path fill-rule="evenodd" clip-rule="evenodd" fill="#FFFFFF" stroke="#221714" stroke-width="2" stroke-miterlimit="10" d="
	M2391.679-697.825c0,0,7.443,17.651,10.133,23.233c2.689,5.594-38.125-10.874-38.125-10.874l-21.922,27.253l25.309-43.607
	C2367.073-701.82,2382.198-705.634,2391.679-697.825z"/>
<path fill-rule="evenodd" clip-rule="evenodd" fill="#FFFFFF" stroke="#221714" stroke-width="2" stroke-miterlimit="10" d="
	M2294.603-710.764c0,0-9.635,16.559-13.025,21.762c-3.39,5.206,32.808-2.075,32.808-2.075l27.38,32.865l-22.266-53.357
	C2319.499-711.57,2304.994-717.264,2294.603-710.764z"/>
<path fill-rule="evenodd" clip-rule="evenodd" fill="#FFFFFF" stroke="#221714" stroke-width="2" stroke-miterlimit="10" d="
	M2296.491-716.151c0,0-11.523,21.945-14.914,27.148c-3.39,5.206,39.195-5.92,39.195-5.92l20.992,36.71l-8.236-50.626
	C2333.528-708.838,2306.88-722.644,2296.491-716.151z"/>
<path fill="#FEF0D5" stroke="#221E1F" stroke-width="2" d="M2445.646-865.789c0,0,15.68,22.703-15.877,58.304
	c0,0,32.111,61.465-39.605,83.916c-71.715,22.451-109.143-26.589-108.707-35.964c0,0-44.6,15.776-50.795-23.553
	c-6.197-39.332,40.107-19.261,41.757-15.823c0,0-28.831-47.647,11.699-47.172c0,0,6.954-10.897-12.326-31.958
	c0,0,21.71-10.753,27.72,4.695c0,0-3.066-13.409-5.109-22.058c0,0,64.314-1.868,121.457,37.571c0,0-15.322-9.548-7.289-23.971
	c0,0,1.85,8.876,24.979,17C2433.548-864.801,2434.696-883.442,2445.646-865.789"/>
<path fill="#FEF0D5" stroke="#221E1F" stroke-width="2" d="M2446.093-834.717c-2.826,7.688-7.938,16.576-16.701,26.462
	c0,0,3.539,6.781,5.641,16.655C2458.993-811.322,2449.202-829.998,2446.093-834.717z"/>
<linearGradient id="SVGID_3_" gradientUnits="userSpaceOnUse" x1="2134.958" y1="-1006.4014" x2="2440.4648" y2="-1006.4014" gradientTransform="matrix(0.9985 0.0543 -0.0543 0.9985 5.5503 -26.2538)">
	<stop  offset="0" style="stop-color:#00A0E9"/>
	<stop  offset="0.1816" style="stop-color:#0877C7"/>
	<stop  offset="0.4862" style="stop-color:#172A88"/>
	<stop  offset="0.7433" style="stop-color:#3A2287"/>
	<stop  offset="1" style="stop-color:#601986"/>
</linearGradient>
<path fill="url(#SVGID_3_)" stroke="#221E1F" stroke-width="2" d="M2454.505-1001.257c-14.141,13.136-31.33,5.171-31.33,5.171
	c-88.145-79.565-177.362,13.955-177.362,13.955c-20.466,9.914-27.524-16.381-27.524-16.381c4.037,31.905-21.526,37.162-6.539,137.8
	c2.22,14.904-21.959-13.427-21.959-13.427c1.677,19.642,18.295,29.289,18.295,29.289c-23.516,12.702-3.323,31.172-3.323,31.172
	c1.687-15.657,7.544-10.636,7.544-10.636c17.855,3.412,17.391,32.678,17.391,32.678s0.18-0.071,0.486-0.184
	c1.836-27.282,40.725-10.234,42.235-7.088c0,0-28.831-47.647,11.699-47.172c0,0,6.954-10.897-12.326-31.958
	c0,0,21.71-10.753,27.72,4.695c0,0-3.066-13.409-5.109-22.058c0,0,63.915-1.851,120.922,37.209
	c-2.621-1.851-13.887-10.806-6.754-23.609c0,0,1.85,8.876,24.979,17c0,0,1.148-18.641,12.098-0.987c0,0,8.252,11.981,0.695,32.171
	l0.055-0.009c38.16-21.85,22.904-45.252,22.904-45.252c15.965,13.228,12.873,32.149,12.873,32.149
	C2526.382-902.536,2454.505-1001.257,2454.505-1001.257z"/>
<path fill="none" stroke="#221E1F" stroke-width="2" d="M2249.661-780.225c0,0,17.875-15.635,25.443,8.935"/>
<ellipse transform="matrix(-0.9435 -0.3313 0.3313 -0.9435 4934.9385 -812.0565)" fill="#FFFFFF" stroke="#221E1F" stroke-width="2" cx="2398.25" cy="-826.68" rx="20.675" ry="20.138"/>
<g>
	
		<linearGradient id="SVGID_4_" gradientUnits="userSpaceOnUse" x1="2338.7656" y1="-928.6855" x2="2366.2979" y2="-928.6855" gradientTransform="matrix(0.9985 0.0543 -0.0543 0.9985 5.5503 -26.2538)">
		<stop  offset="0" style="stop-color:#727171"/>
		<stop  offset="0.0876" style="stop-color:#5A5655"/>
		<stop  offset="0.1863" style="stop-color:#463F3E"/>
		<stop  offset="0.2996" style="stop-color:#362E2B"/>
		<stop  offset="0.4342" style="stop-color:#2B211F"/>
		<stop  offset="0.6113" style="stop-color:#251A17"/>
		<stop  offset="0.9945" style="stop-color:#231815"/>
	</linearGradient>
	<path fill="url(#SVGID_4_)" stroke="#221E1F" stroke-width="2" d="M2418.813-825.361c-0.264,8.661-6.637,15.498-14.238,15.266
		c-7.598-0.23-13.543-7.439-13.279-16.103c0.264-8.662,6.637-15.496,14.234-15.266S2419.075-834.024,2418.813-825.361z"/>
	<circle fill="#FFFFFF" stroke="#221E1F" stroke-width="2" cx="2401.577" cy="-829.8" r="3.914"/>
	<path fill="#FFFFFF" stroke="#221E1F" stroke-width="2" d="M2400.093-823.562c-0.039,1.237-1.07,2.212-2.309,2.174
		c-1.238-0.038-2.211-1.073-2.174-2.311c0.037-1.237,1.072-2.211,2.313-2.172C2399.157-825.834,2400.13-824.8,2400.093-823.562z"/>
</g>
<path fill="#FFFFFF" stroke="#221E1F" stroke-width="2" d="M2305.485-837.515c-3.682,10.493,2.062,22.067,12.836,25.851
	c10.773,3.783,22.496-1.657,26.182-12.151c3.684-10.495-2.064-22.068-12.834-25.852
	C2320.894-853.451,2309.173-848.01,2305.485-837.515z"/>
<g>
	
		<linearGradient id="SVGID_5_" gradientUnits="userSpaceOnUse" x1="2265.4014" y1="-928.6851" x2="2292.9326" y2="-928.6851" gradientTransform="matrix(0.9985 0.0543 -0.0543 0.9985 5.5503 -26.2538)">
		<stop  offset="0" style="stop-color:#727171"/>
		<stop  offset="0.0876" style="stop-color:#5A5655"/>
		<stop  offset="0.1863" style="stop-color:#463F3E"/>
		<stop  offset="0.2996" style="stop-color:#362E2B"/>
		<stop  offset="0.4342" style="stop-color:#2B211F"/>
		<stop  offset="0.6113" style="stop-color:#251A17"/>
		<stop  offset="0.9945" style="stop-color:#231815"/>
	</linearGradient>
	<path fill="url(#SVGID_5_)" stroke="#221E1F" stroke-width="2" d="M2345.557-829.346c-0.262,8.661-6.636,15.497-14.235,15.266
		c-7.6-0.231-13.545-7.439-13.281-16.103c0.263-8.662,6.637-15.497,14.234-15.265
		C2339.872-845.218,2345.819-838.009,2345.557-829.346z"/>
	<circle fill="#FFFFFF" stroke="#221E1F" stroke-width="2" cx="2328.322" cy="-833.785" r="3.912"/>
	<path fill="#FFFFFF" stroke="#221E1F" stroke-width="2" d="M2326.836-827.548c-0.038,1.238-1.069,2.212-2.309,2.174
		c-1.237-0.038-2.21-1.072-2.171-2.31c0.035-1.238,1.07-2.211,2.31-2.173C2325.902-829.82,2326.876-828.785,2326.836-827.548z"/>
</g>
<path fill="none" stroke="#221E1F" stroke-width="2" d="M2358.763-804.839c0,0,10.791-12.089,17.762,2.427
	c0,0,1.971,7.043-8.754,14.074"/>
<path fill="#FFFFFF" stroke="#221E1F" stroke-width="2" d="M2322.078-777.072c0,0,53.812,18.385,87.075-0.171
	C2409.153-777.244,2374.794-695.681,2322.078-777.072z"/>
<linearGradient id="SVGID_6_" gradientUnits="userSpaceOnUse" x1="2245.9014" y1="-953.5166" x2="2294.916" y2="-953.5166" gradientTransform="matrix(0.9985 0.0543 -0.0543 0.9985 5.5503 -26.2538)">
	<stop  offset="0" style="stop-color:#727171"/>
	<stop  offset="0.0135" style="stop-color:#6D6B6B"/>
	<stop  offset="0.0838" style="stop-color:#565150"/>
	<stop  offset="0.1646" style="stop-color:#433C3A"/>
	<stop  offset="0.2591" style="stop-color:#352C29"/>
	<stop  offset="0.3759" style="stop-color:#2A201E"/>
	<stop  offset="0.5397" style="stop-color:#251A17"/>
	<stop  offset="0.9945" style="stop-color:#231815"/>
</linearGradient>
<path fill="url(#SVGID_6_)" stroke="#221E1F" stroke-width="2" d="M2323.097-863.557c0,0-21.803,0.113-23.487,13.982
	c0,0-1.667,5.555,10.708-3.413c0,0,11.211-9.464,28.705,2.854C2356.518-837.814,2349.167-859.512,2323.097-863.557z"/>
<linearGradient id="SVGID_7_" gradientUnits="userSpaceOnUse" x1="2320.0596" y1="-952.8984" x2="2368.9727" y2="-952.8984" gradientTransform="matrix(0.9985 0.0543 -0.0543 0.9985 5.5503 -26.2538)">
	<stop  offset="0" style="stop-color:#727171"/>
	<stop  offset="0.0135" style="stop-color:#6D6B6B"/>
	<stop  offset="0.0838" style="stop-color:#565150"/>
	<stop  offset="0.1646" style="stop-color:#433C3A"/>
	<stop  offset="0.2591" style="stop-color:#352C29"/>
	<stop  offset="0.3759" style="stop-color:#2A201E"/>
	<stop  offset="0.5397" style="stop-color:#251A17"/>
	<stop  offset="0.9945" style="stop-color:#231815"/>
</linearGradient>
<path fill="url(#SVGID_7_)" stroke="#221E1F" stroke-width="2" d="M2399.12-859.473c0,0,21.803,0.313,23.357,14.198
	c0,0,1.617,5.569-10.676-3.511c0,0-11.123-9.568-28.73,2.589C2365.466-834.04,2373.013-855.667,2399.12-859.473z"/>
<path fill="#FFFFFF" stroke="#221714" stroke-width="2" stroke-miterlimit="10" d="M1269.864-636.89
	c24.049-2.889,39.213-15.992,61.57-20.047c1.318-0.211,2.629-0.465,3.957-0.678l-36.141-66.183
	c-22.482,4.41-43.52,10.385-65.855,8.926c-44.396-2.877-85.824-20.643-129.775-21.012c-14.34-13.271-28.471-29.418-40.668-47.984
	l-58.796,59.027c11.072,18.361,22.718,33.888,35.347,47.279c10.122,10.752,34.891,24.072,39.422,38.275
	c6.687,20.891,2.756,63.166,3.879,88.697c0.885,20.801-2.633,10.633-1.733,30.426l179.044-7.793
	C1258.481-575.394,1273.12-589.119,1269.864-636.89z"/>
<g>
	<path fill-rule="evenodd" clip-rule="evenodd" fill="#FFFFFF" stroke="#221714" stroke-miterlimit="10" d="M1242.563-666.667
		c5.773,3.17,10.52,9.859,9.799,18.666c-0.32,3.859-1.646,6.861-3.342,9.301c-3.398,4.852-9.801,8.959-18.09,8.209
		c-4.773-0.443-8.648-2.689-11.598-5.713c-2.848-2.951-5.178-6.814-5.514-11.775c-0.396-6.018,1.67-10.803,4.004-13.805
		c3.277-4.203,9.635-8.018,17.188-7.193C1237.886-668.669,1240.351-667.882,1242.563-666.667z M1234.53-667.083
		c-3.654-0.348-7.277,0.641-9.811,2.039c-4.906,2.734-9.873,8.395-8.996,17.379c0.734,7.697,7.449,14.529,15.381,15.262
		c10.473,0.975,18.551-6.381,19.354-15.611c0.635-7.215-2.664-12.555-6.781-15.736C1241.282-665.57,1238.429-666.73,1234.53-667.083
		z"/>
	<path fill-rule="evenodd" clip-rule="evenodd" fill="#FFFFFF" stroke="#221714" stroke-miterlimit="10" d="M1238.722-663.384
		c2.459,1,4.521,2.773,6.061,4.775c1.328,1.736,2.719,4.023,2.947,7.768c0.434,6.973-3.51,11.816-7.809,14.068
		c-9.277,4.824-21.271-1.85-21.104-13.184c0.092-6.74,4.4-11.717,9.395-13.576c1.688-0.631,4.645-0.871,6.717-0.643
		C1236.722-663.958,1237.745-663.769,1238.722-663.384z M1234.19-663.152c-0.047,2.377-0.074,4.781-0.102,7.162
		c0.766,0.01,1.557,0.027,2.332,0.033c0.008-1.32,0.035-2.625,0.064-3.945c8.74,1.969,9.393,16.332,1.158,19.289
		c0.26,1.09,0.84,1.85,1.133,2.918c1.715-0.693,3.254-1.705,4.422-2.99c4.258-4.703,4.531-12.783,0.406-17.811
		C1241.56-660.96,1238.288-662.832,1234.19-663.152z M1227.394-637.873c0.246-0.963,0.771-1.641,1.059-2.58
		c-0.57-0.938-1.688-1.203-2.451-1.951c-1.852-1.781-3.203-4.74-3.094-7.912c0.184-4.988,3.277-8.336,7.293-9.672
		c0.314,1.016,0.01,2.66,0.082,3.932c0.721,0.076,1.291,0.256,2.195,0.039c0.037-2.408,0.064-4.779,0.109-7.166
		c-6.133,0.088-11.826,5.441-12.572,11.359C1219.175-645.23,1222.474-640.304,1227.394-637.873z M1237.517-642.507
		c1.961-0.967,3.82-3.254,4.189-5.939c0.533-3.83-1.141-7.027-3.363-8.664c-0.129-0.131-0.275-0.234-0.449-0.299
		C1237.487-652.74,1237.708-647.423,1237.517-642.507z M1228.858-657.548c-5.252,2.014-5.463,12.746-0.223,14.889
		C1228.7-647.613,1228.782-652.576,1228.858-657.548z M1236.401-654.371c-0.803,0.016-1.557,0-2.332-0.012
		c-0.053,1.891-0.072,3.775-0.09,5.674c0.762,0.027,1.547,0.039,2.328,0.045C1236.335-650.576,1236.356-652.453,1236.401-654.371z
		 M1232.458-654.433c-0.736-0.01-1.473-0.014-2.193-0.014c-0.037,1.885-0.055,3.789-0.092,5.686c0.738,0,1.465,0.016,2.203,0.021
		C1232.386-650.623,1232.423-652.521,1232.458-654.433z M1236.29-647.068c-0.754,0.057-1.822-0.166-2.357,0.139
		c-0.008,1.883-0.035,3.766-0.045,5.66c0.986,0.109,1.557-0.234,2.328-0.391C1236.233-643.457,1236.271-645.275,1236.29-647.068z
		 M1232.349-647.13c-0.729-0.006-1.465-0.014-2.203-0.021c-0.027,1.793-0.045,3.592-0.064,5.387
		c0.719,0.178,1.236,0.533,2.182,0.475C1232.292-643.228,1232.31-645.164,1232.349-647.13z M1233.841-639.513
		c-0.008,1.021-0.029,2.053-0.049,3.072c1.43-0.008,2.693-0.203,3.668-0.674c-0.342-0.973-0.801-1.822-1.135-2.783
		C1235.462-639.796,1234.696-639.623,1233.841-639.513z M1230.2-640.005c-0.881,0.594-1.123,1.797-1.52,2.906
		c1.246,0.168,2.092,0.662,3.51,0.635c0.018-1.031,0.027-2.027,0.055-3.055C1231.573-639.707,1230.839-639.812,1230.2-640.005z"/>
</g>
<g>
	<path fill="#FEF0D5" stroke="#221714" stroke-width="2" stroke-miterlimit="10" d="M1169.813-676.58
		c1.305-1.053,24.178-39.892,25.307-43.605l2.777-21.436c-12.225-1.053-23.434-3.104-33.685-5.918l-2.638,20.334
		C1164.542-720.796,1166.884-674.201,1169.813-676.58z"/>
</g>
<path fill-rule="evenodd" clip-rule="evenodd" fill="#FFFFFF" stroke="#221714" stroke-width="2" stroke-miterlimit="10" d="
	M1219.728-716.19c0,0,7.443,17.652,10.131,23.232c2.689,5.594-32.256-6.23-32.256-6.23l-27.789,22.609l25.307-43.605
	C1195.12-720.185,1210.245-723.999,1219.728-716.19z"/>
<path fill-rule="evenodd" clip-rule="evenodd" fill="#FFFFFF" stroke="#221714" stroke-width="2" stroke-miterlimit="10" d="
	M1219.728-716.19c0,0,7.443,17.652,10.131,23.232c2.689,5.594-38.125-10.873-38.125-10.873l-21.92,27.252l25.307-43.605
	C1195.12-720.185,1210.245-723.999,1219.728-716.19z"/>
<path fill-rule="evenodd" clip-rule="evenodd" fill="#FFFFFF" stroke="#221714" stroke-width="2" stroke-miterlimit="10" d="
	M1122.65-729.13c0,0-9.634,16.559-13.024,21.763c-3.391,5.205,32.807-2.076,32.807-2.076l27.381,32.863l-22.267-53.357
	C1147.547-729.937,1133.042-735.63,1122.65-729.13z"/>
<path fill-rule="evenodd" clip-rule="evenodd" fill="#FFFFFF" stroke="#221714" stroke-width="2" stroke-miterlimit="10" d="
	M1124.54-734.517c0,0-11.523,21.945-14.914,27.15c-3.391,5.205,39.193-5.921,39.193-5.921l20.994,36.708l-8.238-50.625
	C1161.575-727.204,1134.928-741.009,1124.54-734.517z"/>
<path fill="#FEF0D5" stroke="#221E1F" stroke-width="2" d="M1272.581-896.694c0,0,17.672,22.83-13.273,61.82
	c0,0,37.043,62.393-36.611,89.928c-73.655,27.533-115.545-21.576-115.625-31.396c0,0-45.703,19.02-54.411-21.721
	c-8.71-40.744,40.812-22.405,42.731-18.907c0,0-32.834-48.144,9.541-49.95c0,0,6.645-11.781-14.696-32.689
	c0,0,22.075-12.469,29.229,3.33c0,0-3.965-13.836-6.592-22.756c0,0,67.092-5.607,129.037,32.352c0,0-16.553-9.105-8.977-24.631
	c0,0,2.434,9.169,27.063,16.341C1259.997-894.975,1260.138-914.516,1272.581-896.694"/>
<path fill="#FEF0D5" stroke="#221E1F" stroke-width="2" d="M1274.813-864.254c-2.516,8.192-7.35,17.77-15.943,28.596
	c0,0,4.082,6.884,6.84,17.082C1289.624-840.544,1278.331-859.502,1274.813-864.254z"/>
<linearGradient id="SVGID_8_" gradientUnits="userSpaceOnUse" x1="1004.7803" y1="-934.96" x2="1321.5879" y2="-934.96">
	<stop  offset="0" style="stop-color:#300018"/>
	<stop  offset="0.0439" style="stop-color:#3A001D"/>
	<stop  offset="0.1472" style="stop-color:#4B0026"/>
	<stop  offset="0.2759" style="stop-color:#56002C"/>
	<stop  offset="0.4564" style="stop-color:#5D002F"/>
	<stop  offset="0.9576" style="stop-color:#5F0030"/>
	<stop  offset="1" style="stop-color:#000000"/>
</linearGradient>
<path fill="url(#SVGID_8_)" stroke="#221E1F" stroke-width="2" d="M1241.698-1031.555
	c-142.689-90.993-183.062,44.587-183.062,44.587c-19.544,18.322-42.751,26.592-30.147,108.872
	c2.389,15.585-23.709-12.782-23.709-12.782c2.869,20.428,20.781,29.563,20.781,29.563c-23.846,14.607-1.701,32.757-1.701,32.757
	c0.871-16.454,7.28-11.54,7.28-11.54c18.849,2.549,20.026,33.153,20.026,33.153s0.182-0.085,0.5-0.22
	c0.366-28.611,41.968-13.008,43.725-9.807c0,0-32.834-48.144,9.541-49.95c0,0,6.645-11.781-14.696-32.689
	c0,0,22.075-12.469,29.229,3.33c0,0-3.965-13.836-6.592-22.756c0,0,66.676-5.566,128.457,32.005
	c-2.844-1.786-15.123-10.501-8.396-24.284c0,0,2.434,9.169,27.063,16.341c0,0,0.141-19.541,12.584-1.719
	c0,0,9.303,12.049,2.557,33.574l0.055-0.012c38.629-24.999,21.359-48.583,21.359-48.583c17.434,12.913,15.277,32.858,15.277,32.858
	C1354.849-939.678,1241.698-1031.555,1241.698-1031.555z"/>
<path fill="none" stroke="#221E1F" stroke-width="2" d="M1185.269-828.073c0,0,10.588-13.246,18.693,1.525
	c0,0,2.463,7.247-8.346,15.203"/>
<path fill="#FFFFFF" stroke="#221E1F" stroke-width="2" d="M1148.518-796.978c0,0,57.267,16.153,90.97-5.128
	C1239.487-802.106,1208.224-714.935,1148.518-796.978z"/>
<path fill="none" stroke="#221E1F" stroke-width="2" d="M1179.927-876.943c0,0-33.539-16.549-68.961,7.311"/>
<path fill="none" stroke="#221E1F" stroke-width="2" d="M1264.685-872.861c0,0-29.4-22.914-64.822,0.946"/>
<polyline fill="none" stroke="#221E1F" stroke-width="2" points="1080.011,-868.376 1120.871,-852.346 1251.319,-853.139 
	1280.563,-874.262 "/>
<ellipse transform="matrix(-0.9601 -0.2796 0.2796 -0.9601 2640.2192 -1329.7155)" fill="#FFFFFF" stroke="#221E1F" stroke-width="2" cx="1225.284" cy="-853.138" rx="21.634" ry="21.073"/>
<g>
	
		<linearGradient id="SVGID_9_" gradientUnits="userSpaceOnUse" x1="1584.166" y1="-850.3237" x2="1612.9717" y2="-850.3237" gradientTransform="matrix(0.8569 0 -1.000000e-004 0.8569 -145.8415 -123.9669)">
		<stop  offset="0" style="stop-color:#727171"/>
		<stop  offset="0.0876" style="stop-color:#5A5655"/>
		<stop  offset="0.1863" style="stop-color:#463F3E"/>
		<stop  offset="0.2996" style="stop-color:#362E2B"/>
		<stop  offset="0.4342" style="stop-color:#2B211F"/>
		<stop  offset="0.6113" style="stop-color:#251A17"/>
		<stop  offset="0.9945" style="stop-color:#231815"/>
	</linearGradient>
	<path fill="url(#SVGID_9_)" stroke="#221E1F" stroke-width="2" d="M1236.394-852.905c0.189,7.767-5.186,14.197-12,14.36
		c-6.814,0.164-12.49-6-12.674-13.768c-0.188-7.769,5.188-14.198,12.002-14.361C1230.536-866.839,1236.212-860.674,1236.394-852.905
		z"/>
	<circle fill="#FFFFFF" stroke="#221E1F" stroke-width="2" cx="1220.749" cy="-856.041" r="3.509"/>
	<circle fill="#FFFFFF" stroke="#221E1F" stroke-width="2" cx="1217.713" cy="-850.335" r="2.009"/>
</g>
<path fill="#FFFFFF" stroke="#221E1F" stroke-width="2" d="M1127.745-859.187c-3.251,11.173,3.409,22.94,14.881,26.28
	c11.472,3.339,23.408-3.01,26.662-14.184c3.252-11.175-3.408-22.94-14.877-26.282C1142.937-876.712,1131-870.361,1127.745-859.187z"
	/>
<g>
	
		<linearGradient id="SVGID_10_" gradientUnits="userSpaceOnUse" x1="1496.0098" y1="-850.3237" x2="1524.8193" y2="-850.3237" gradientTransform="matrix(0.8569 0 -1.000000e-004 0.8569 -145.8415 -123.9669)">
		<stop  offset="0" style="stop-color:#727171"/>
		<stop  offset="0.0876" style="stop-color:#5A5655"/>
		<stop  offset="0.1863" style="stop-color:#463F3E"/>
		<stop  offset="0.2996" style="stop-color:#362E2B"/>
		<stop  offset="0.4342" style="stop-color:#2B211F"/>
		<stop  offset="0.6113" style="stop-color:#251A17"/>
		<stop  offset="0.9945" style="stop-color:#231815"/>
	</linearGradient>
	<path fill="url(#SVGID_10_)" stroke="#221E1F" stroke-width="2" d="M1160.855-852.905c0.187,7.767-5.188,14.197-12.001,14.36
		c-6.816,0.164-12.488-6-12.676-13.768c-0.186-7.769,5.189-14.198,12.003-14.361
		C1154.997-866.839,1160.673-860.674,1160.855-852.905z"/>
	<circle fill="#FFFFFF" stroke="#221E1F" stroke-width="2" cx="1145.211" cy="-856.041" r="3.509"/>
	<circle fill="#FFFFFF" stroke="#221E1F" stroke-width="2" cx="1142.173" cy="-850.335" r="2.01"/>
</g>
<path fill="none" stroke="#221E1F" stroke-width="2" d="M1066.466-796.291c0,0,17.787-17.353,27.092,7.889"/>
<g>
	<path fill="#221714" stroke="#221714" stroke-width="2" stroke-miterlimit="10" d="M375.279,379.382
		c30.496-46.525,96.916-86.398,76.584-200.502c0,0-29.48-141.586-165.094-141.729c0,0-160.096-3.547-144.177,190.947
		c0,0,13.663,88.313,76.739,167.51"/>
	<path fill="#FFFFFF" stroke="#221714" stroke-width="2" stroke-miterlimit="10" d="M394.014,434.722
		c25.477-4.184,45.516-16.16,69.15-21.471c1.398-0.314,2.789-0.605,4.189-0.92l-41.48-68.826
		c-23.744,5.74-45.852,13.053-69.715,12.523c-47.385-1.055-92.305-18.088-139.117-16.494
		c-15.871-13.475-31.631-30.016-45.469-49.248l-59.92,65.506c12.636,19.055,25.736,35.098,39.79,48.756
		c11.271,10.984,38.239,24.047,43.718,38.955c8.053,21.943,5.793,67.115,8.139,94.258c1.904,22.127-2.32,11.43-0.465,32.449
		l190.279-16.42C389.209,503.354,399.664,485.435,394.014,434.722z"/>
	<path fill="#0E68AB" stroke="#231815" stroke-width="2" stroke-miterlimit="10" d="M283.898,434.628
		c0,0-24.39,102.369-3.741,109.289c0,0,26.79-25.865,37.499-21.535C317.658,522.382,283.965,444.226,283.898,434.628z"/>
	<path fill="#0E68AB" stroke="#FFFFFF" stroke-width="2" stroke-miterlimit="10" d="M274.086,513.241
		c0,0,21.977-17.158,29.914-18.436"/>
	<g>
		<path fill="#FFFFFF" d="M265.069,383.644c0,0,49.415,0.381,56.14,10.834"/>
		<path fill="#0E68AB" d="M265.069,383.644c4.864-0.58,9.747-0.713,14.624-0.637c4.88,0.063,9.75,0.416,14.611,0.984
			c4.85,0.637,9.699,1.467,14.434,2.9c2.365,0.705,4.699,1.576,6.924,2.715c2.152,1.174,4.441,2.609,5.549,4.871
			c-1.66-1.811-3.92-2.699-6.152-3.459c-2.246-0.756-4.578-1.279-6.912-1.764c-4.693-0.91-9.447-1.594-14.227-2.162
			c-4.772-0.621-9.574-1.104-14.383-1.662C274.727,384.899,269.909,384.354,265.069,383.644z"/>
	</g>
	<g>
		<path fill="#0E68AB" d="M116.009,365.272c0,0,57.485-67.096,60.247-65.594"/>
		<path fill="#0E68AB" d="M116.009,365.272c4.354-6.066,8.971-11.912,13.685-17.674c4.703-5.773,9.561-11.41,14.48-17.002
			c4.962-5.543,9.983-11.047,15.213-16.359c2.604-2.668,5.27-5.277,7.996-7.83c1.379-1.258,2.758-2.521,4.195-3.721
			c0.722-0.598,1.449-1.191,2.203-1.748c0.382-0.277,0.77-0.545,1.172-0.793c0.397-0.207,0.824-0.561,1.301-0.467
			c-0.464-0.014-0.813,0.391-1.163,0.658c-0.345,0.305-0.677,0.627-1.001,0.957c-0.654,0.652-1.288,1.332-1.912,2.018
			c-1.246,1.373-2.482,2.758-3.695,4.166l-7.303,8.414c-4.848,5.629-9.758,11.205-14.672,16.779
			c-4.955,5.537-9.908,11.082-14.984,16.523C126.467,354.649,121.343,360.048,116.009,365.272z"/>
	</g>
	<g>
		<path fill="#0E68AB" stroke="#0E68AB" stroke-width="2" stroke-miterlimit="10" d="M353.988,432.491
			c8.021-1.217,14.951,2.561,18.627,6.855c2.629,3.105,5.027,8.111,4.881,14.527c-0.121,5.313-2.447,9.521-5.34,12.789
			c-3,3.344-7.031,5.93-12.082,6.609c-8.785,1.174-15.787-2.908-19.615-7.92c-1.941-2.51-3.461-5.656-3.992-9.74
			c-1.182-9.35,3.58-16.693,9.582-20.34C348.363,433.899,350.955,432.95,353.988,432.491z M344.99,438.446
			c-4.225,3.572-7.494,9.416-6.506,17.057c1.283,9.797,10.223,17.264,21.322,15.752c8.393-1.137,15.236-8.736,15.689-16.928
			c0.527-9.645-5.023-15.404-10.389-18.121c-2.75-1.367-6.648-2.254-10.525-1.738C350.445,435.058,347.461,436.378,344.99,438.446z"
			/>
		<path fill="#0E68AB" stroke="#0E68AB" stroke-miterlimit="10" d="M354.293,437.599c2.195-0.332,5.342-0.211,7.18,0.371
			c5.395,1.754,10.207,6.863,10.625,14.037c0.684,12.047-11.781,19.705-21.895,14.971c-4.656-2.168-9.08-7.174-8.93-14.625
			c0.074-3.971,1.451-6.473,2.787-8.391c1.537-2.207,3.664-4.148,6.248-5.348C351.297,438.151,352.389,437.929,354.293,437.599z
			 M345.309,444.052c-4.162,5.561-3.496,14.119,1.246,18.928c1.303,1.338,2.992,2.324,4.844,2.998
			c0.268-1.152,0.854-2.014,1.057-3.174c-8.883-2.803-8.838-18.098,0.389-20.58c0.066,1.385,0.16,2.77,0.236,4.176
			c0.826-0.039,1.656-0.098,2.482-0.135c-0.15-2.518-0.295-5.08-0.43-7.623C350.77,439.155,347.371,441.313,345.309,444.052z
			 M370.736,450.077c-1.066-6.299-7.379-11.695-13.898-11.5c0.131,2.494,0.281,5.035,0.445,7.605
			c0.963,0.184,1.559-0.045,2.314-0.137c0.031-1.367-0.383-3.094-0.084-4.219c4.318,1.258,7.789,4.688,8.199,9.971
			c0.275,3.369-1.047,6.574-2.936,8.572c-0.773,0.834-1.969,1.154-2.521,2.176c0.354,0.975,0.947,1.691,1.242,2.746
			C368.639,462.462,371.924,457.067,370.736,450.077z M351.434,444.946c-0.166,0.064-0.342,0.176-0.451,0.316
			c-2.283,1.852-3.926,5.322-3.188,9.369c0.516,2.865,2.604,5.217,4.711,6.131C352.092,455.55,352.088,449.878,351.434,444.946z
			 M361.965,460.229c5.479-2.533,4.781-13.955-0.91-15.84C361.365,449.679,361.668,454.94,361.965,460.229z M353.533,454.161
			c0.814-0.037,1.654-0.074,2.471-0.135c-0.109-2.018-0.221-4.037-0.344-6.059c-0.83,0.061-1.656,0.098-2.486,0.156
			C353.287,450.142,353.418,452.165,353.533,454.161z M357.717,453.938c0.775-0.064,1.557-0.088,2.326-0.133
			c-0.111-2.018-0.223-4.037-0.354-6.082c-0.762,0.068-1.543,0.09-2.324,0.133C357.484,449.899,357.596,451.919,357.717,453.938z
			 M353.955,461.628c0.813,0.141,1.438,0.479,2.51,0.297c-0.115-1.996-0.236-4.018-0.35-6.037c-0.588-0.287-1.688,0.002-2.498-0.004
			C353.725,457.792,353.842,459.696,353.955,461.628z M358.174,461.858c1.012-0.008,1.531-0.404,2.295-0.609
			c-0.105-1.906-0.211-3.811-0.32-5.762c-0.775,0.066-1.557,0.086-2.328,0.131C357.924,457.704,358.047,459.792,358.174,461.858z
			 M353.906,463.511c-0.311,1.035-0.76,1.959-1.074,3.016c1.059,0.469,2.398,0.619,3.926,0.551c-0.064-1.092-0.133-2.18-0.199-3.27
			C355.666,463.698,354.82,463.554,353.906,463.511z M358.275,463.696c0.057,1.09,0.121,2.176,0.188,3.27
			c1.51-0.008,2.404-0.596,3.689-0.836c-0.43-1.143-0.76-2.43-1.73-3.021C359.744,463.349,358.959,463.481,358.275,463.696z"/>
	</g>
	<path fill="#FEF0D5" stroke="#221714" stroke-width="2" stroke-miterlimit="10" d="M409.664,211.907
		c0.498,4.213,0.869,8.611,1.064,13.164c0,0-1.018,19.383-7.693,44.445c14.174-1.986,25.365-13.629,26.053-28.223
		C429.717,228.083,421.555,216.454,409.664,211.907z"/>
	<path fill="#221714" stroke="#221714" stroke-width="2" stroke-miterlimit="10" d="M208.711,381.55
		c0,0,10.459-47.063,40.449-41.229c29.991,5.813-75.455-70.246-75.455-70.246l-10.051,28.895
		C163.656,298.97,194.806,373.132,208.711,381.55z"/>
	<path fill="#221714" stroke="#221714" stroke-width="2" stroke-miterlimit="10" d="M398.242,350.052
		c0,0-9.836,11.195-31.479,40.037c-21.646,28.846,14.82-42.328-19.348-44.809C313.236,342.798,397.35,331.989,398.242,350.052z"/>
	<g>
		<path fill="#FEF0D5" stroke="#221714" stroke-width="2" stroke-miterlimit="10" d="M291.857,374.38
			c-1.174-1.363-16.257-25.479-16.781-29.607l1.767-13.221c13.01,1.152,25.149,1.076,36.444,0l1.756,20.307
			C310.742,358.05,294.484,377.419,291.857,374.38z"/>
	</g>
	<path fill="#FEF0D5" stroke="#221714" stroke-width="2" stroke-miterlimit="10" d="M425.963,203.28
		c0,0-7.406,140.846-128.525,140.299c0,0-93.605-33.244-97.658-84.42c0,0-29.561-17.109-28.915-36.684
		c0.649-19.598,17.85-34.461,35.938-13.98c18.091,20.48,9.237-119.832,124.048-118.291
		C330.85,90.204,420.623,104.954,425.963,203.28z"/>
	<path fill="#221714" stroke="#221714" stroke-width="2" stroke-miterlimit="10" d="M409.82,267.737
		c0,0,23.387-55.326-18.984-76.035c-42.379-20.713-83.729-21.654-101.191-40.561c0,0,14.27,17.045,41.396,36.121
		c0,0-67.082-20.533-76.852-52.627c0,0-46.872,77.51-44.223,99.182c0,0-51.727-139.111,84.576-154.732
		C294.543,79.085,488.066,73.128,409.82,267.737z"/>
	<g>
		<path fill="#0E68AB" d="M417.186,349.214c0,0,37.164,61.693,39.588,69.611"/>
		<path fill="#0E68AB" d="M417.186,349.214c3.996,5.389,7.707,10.951,11.309,16.578c3.621,5.619,7.066,11.342,10.459,17.1
			c3.338,5.787,6.621,11.607,9.684,17.559c1.547,2.965,3.027,5.971,4.451,9.004c1.352,3.061,2.842,6.098,3.684,9.371
			c-1.477-2.998-3.311-5.791-5.037-8.645l-5.223-8.533c-3.486-5.688-6.877-11.432-10.26-17.184
			c-3.33-5.781-6.66-11.563-9.848-17.432C423.199,361.173,420.072,355.269,417.186,349.214z"/>
	</g>
	<path fill="#0E68AB" stroke="#221714" stroke-width="2" stroke-miterlimit="10" d="M369.695,359.237
		c10.787,17.615-61.033,81.344-85.052,84.029c-31.175,3.445-65.437-100.313-65.437-100.313s31.632-7.451,44.719,2.736
		c13.084,10.209,22.973,64.262,22.973,64.262s32.805-54.246,42.967-57.736C340.025,348.726,365.631,352.614,369.695,359.237z"/>
	<g>
		<path fill="#FFFFFF" d="M225.076,340.052c4.014,8.852,8.004,17.703,12.203,26.455c4.139,8.777,8.39,17.5,12.797,26.129
			c4.455,8.6,8.984,17.18,14.115,25.33c2.578,4.057,5.246,8.086,8.349,11.611c1.542,1.719,3.256,3.422,5.046,4.303
			c0.898,0.434,1.68,0.531,2.215,0.27c0.316-0.139,0.484-0.299,1.012-0.805c0.508-0.461,0.986-0.861,1.496-1.262
			c4.055-3.068,8.361-5.354,12.619-7.73l12.76-6.994c8.459-4.688,16.684-9.766,24.355-15.582
			c7.637-5.838,14.715-12.479,20.418-20.244c5.777-7.695,9.949-16.607,12.17-26.072c-1.525,9.613-5.459,18.818-10.92,26.955
			c-5.51,8.131-12.521,15.168-20.166,21.281c-7.637,6.154-15.961,11.359-24.398,16.236c-4.223,2.436-8.51,4.738-12.742,7.092
			c-4.205,2.365-8.49,4.701-12.174,7.518c-0.449,0.35-0.904,0.729-1.295,1.082c-0.345,0.324-1.061,1.039-1.883,1.365
			c-0.822,0.363-1.773,0.477-2.592,0.359c-0.83-0.107-1.561-0.373-2.213-0.689c-2.571-1.32-4.303-3.203-5.994-5.066
			c-3.285-3.797-6.002-7.898-8.568-12.074c-5.071-8.375-9.563-17.029-13.784-25.803
			C239.447,376.183,231.937,358.235,225.076,340.052z"/>
	</g>
</g>
<path fill="#FEF0D5" stroke="#000000" stroke-width="2" stroke-miterlimit="10" d="M1370.886-131.848
	c0,0,21.793-25.584,15.996-36.914c-5.796-11.332,28.146,5.629,9.595,22.789c0,0,40.24,4.191,32.898,13.555
	c0,0,19.143,11.92,4.257,14.072c0,0,3.956,8.512-5.803,6.625c0,0-42.433,21.785-53.218-9.104l5.031,8.861
	c0,0-99.619,49.498-108.689,4.021c0,0,2.821-12.162,13.387-14.053C1284.34-121.995,1345.671-117.715,1370.886-131.848z"/>
<path fill="#FEF0D5" stroke="#000000" stroke-width="2" stroke-miterlimit="10" d="M930.438-114.842c0,0-7.897-3.936-16.519-9.35
	c0,0-26.701-20.408-23.426-32.709c3.275-12.299-26.322,11.445-4.569,24.303c0,0-38.448,12.588-29.294,20.191
	c0,0-16.197,15.693-1.188,14.654c0,0-2.074,9.156,7.066,5.252c0,0,45.126,12.758,50.1-20.133c0,0-3.65,11.598-7.827,15.535
	c0,0,79.481,29.406,70.159-4.688C974.94-101.786,959.097-107.26,930.438-114.842z"/>
<path fill="#FFFFFF" stroke="#221714" stroke-width="2" stroke-miterlimit="10" d="M1252.408-45.069
	c25.479-4.186,45.516-16.162,69.152-21.471c1.397-0.314,2.789-0.607,4.188-0.92l-41.479-68.828
	c-23.744,5.742-45.854,13.055-69.717,12.523c-47.383-1.055-92.305-18.088-139.118-16.492c-30.074,9.537-96.688,17.666-108.32,9.021
	l-0.305,70.268c12.635,19.055,81.267,9.77,86.746,24.678c8.053,21.945,5.793,67.115,8.138,94.258
	c1.904,22.127-2.319,11.432-0.464,32.449L1251.509,74C1247.605,23.562,1258.059,5.644,1252.408-45.069z"/>
<path fill="#0E68AB" stroke="#231815" stroke-width="2" stroke-miterlimit="10" d="M1142.294-45.163
	c0,0-24.391,102.367-3.742,109.289c0,0,26.79-25.865,37.501-21.537C1176.054,42.589,1142.358-35.567,1142.294-45.163z"/>
<path fill="#0E68AB" stroke="#FFFFFF" stroke-width="2" stroke-miterlimit="10" d="M1132.48,33.451c0,0,21.977-17.16,29.915-18.436"
	/>
<g>
	<path fill="#FFFFFF" d="M1123.464-96.149c0,0,49.416,0.381,56.141,10.834"/>
	<path fill="#0E68AB" d="M1123.464-96.149c4.865-0.58,9.748-0.711,14.625-0.635c4.879,0.061,9.75,0.416,14.611,0.984
		c4.849,0.635,9.7,1.467,14.433,2.898c2.367,0.705,4.7,1.576,6.925,2.717c2.151,1.174,4.44,2.609,5.548,4.869
		c-1.658-1.811-3.92-2.699-6.15-3.457c-2.248-0.758-4.579-1.281-6.914-1.764c-4.691-0.91-9.447-1.594-14.225-2.164
		c-4.774-0.621-9.575-1.104-14.384-1.66C1133.121-94.891,1128.304-95.438,1123.464-96.149z"/>
</g>
<g>
	<path fill="#0E68AB" d="M977.104-54.12c0,0-0.758-73.199,2.313-73.891"/>
	<path fill="#0E68AB" d="M977.104-54.12c-0.728-7.434-0.811,0.279-1.07-7.16c-0.275-7.443-0.342-14.883-0.332-22.332
		c0.07-7.439,0.214-14.887,0.639-22.33c0.197-3.723,0.48-7.441,0.844-11.158c0.206-1.855,0.41-3.717,0.698-5.564
		c0.149-0.926,0.304-1.852,0.503-2.77c0.105-0.457,0.219-0.916,0.359-1.367c0.16-0.418,0.248-0.967,0.668-1.207
		c-0.359,0.293-0.352,0.828-0.439,1.262c-0.059,0.455-0.096,0.916-0.121,1.379c-0.061,0.922-0.09,1.85-0.106,2.777
		c-0.03,1.854-0.046,3.709-0.028,5.568l0.062,11.139c0.071,7.43,0.06,14.859,0.046,22.293c-0.072,7.43-0.137,14.863-0.361,22.303
		C978.262-53.852,977.668-61.565,977.104-54.12z"/>
</g>
<g>
	<path fill="#0E68AB" stroke="#0E68AB" stroke-width="2" stroke-miterlimit="10" d="M1212.385-47.301
		c8.021-1.217,14.951,2.561,18.627,6.855c2.629,3.107,5.027,8.113,4.879,14.527c-0.12,5.314-2.445,9.521-5.338,12.789
		c-3,3.346-7.031,5.932-12.082,6.611c-8.787,1.172-15.787-2.908-19.615-7.92c-1.941-2.512-3.461-5.658-3.992-9.742
		c-1.183-9.348,3.578-16.691,9.581-20.338C1206.759-45.891,1209.35-46.842,1212.385-47.301z M1203.385-41.346
		c-4.223,3.572-7.492,9.418-6.504,17.057c1.283,9.797,10.221,17.264,21.322,15.754c8.393-1.139,15.236-8.736,15.688-16.93
		c0.528-9.643-5.023-15.402-10.389-18.121c-2.749-1.369-6.648-2.252-10.523-1.736C1208.84-44.735,1205.857-43.415,1203.385-41.346z"
		/>
	<path fill="#0E68AB" stroke="#0E68AB" stroke-miterlimit="10" d="M1212.688-42.192c2.196-0.332,5.343-0.213,7.179,0.369
		c5.396,1.754,10.209,6.865,10.625,14.037c0.686,12.049-11.781,19.707-21.895,14.971c-4.656-2.166-9.079-7.174-8.928-14.623
		c0.072-3.971,1.451-6.473,2.786-8.393c1.536-2.207,3.665-4.146,6.249-5.346C1209.693-41.639,1210.784-41.864,1212.688-42.192z
		 M1203.704-35.739c-4.163,5.561-3.495,14.117,1.247,18.926c1.301,1.338,2.992,2.326,4.843,2.998
		c0.267-1.15,0.853-2.014,1.058-3.174c-8.884-2.803-8.84-18.098,0.389-20.578c0.066,1.383,0.158,2.768,0.235,4.176
		c0.825-0.039,1.655-0.1,2.483-0.137c-0.152-2.516-0.295-5.08-0.432-7.621C1209.166-40.637,1205.768-38.477,1203.704-35.739z
		 M1229.132-29.715c-1.065-6.297-7.378-11.695-13.898-11.498c0.132,2.492,0.28,5.035,0.446,7.604
		c0.963,0.184,1.558-0.045,2.314-0.135c0.03-1.369-0.383-3.094-0.084-4.221c4.316,1.26,7.787,4.689,8.199,9.973
		c0.275,3.369-1.047,6.572-2.937,8.572c-0.773,0.832-1.968,1.152-2.521,2.174c0.353,0.975,0.945,1.691,1.242,2.748
		C1227.035-17.331,1230.318-22.723,1229.132-29.715z M1209.829-34.846c-0.167,0.066-0.342,0.176-0.452,0.318
		c-2.282,1.85-3.924,5.322-3.188,9.367c0.516,2.867,2.604,5.217,4.713,6.131C1210.488-24.243,1210.484-29.913,1209.829-34.846z
		 M1220.36-19.563c5.478-2.533,4.78-13.953-0.909-15.84C1219.762-30.112,1220.063-24.852,1220.36-19.563z M1211.929-25.631
		c0.815-0.037,1.654-0.074,2.47-0.135c-0.107-2.018-0.219-4.037-0.343-6.059c-0.83,0.063-1.655,0.1-2.485,0.158
		C1211.684-29.649,1211.814-27.625,1211.929-25.631z M1216.113-25.852c0.774-0.066,1.556-0.09,2.326-0.135
		c-0.111-2.018-0.225-4.035-0.354-6.08c-0.764,0.066-1.543,0.09-2.324,0.131C1215.881-29.893,1215.992-27.874,1216.113-25.852z
		 M1212.35-18.165c0.813,0.141,1.438,0.479,2.51,0.299c-0.113-1.998-0.236-4.02-0.349-6.039c-0.588-0.287-1.688,0.002-2.498-0.002
		C1212.119-22,1212.236-20.096,1212.35-18.165z M1216.568-17.932c1.012-0.008,1.533-0.406,2.295-0.611
		c-0.105-1.906-0.21-3.811-0.32-5.762c-0.775,0.066-1.555,0.086-2.326,0.133C1216.318-22.088,1216.442-19.999,1216.568-17.932z
		 M1212.301-16.284c-0.309,1.037-0.758,1.963-1.072,3.018c1.059,0.471,2.396,0.621,3.926,0.551c-0.065-1.09-0.133-2.18-0.199-3.27
		C1214.063-16.094,1213.217-16.237,1212.301-16.284z M1216.671-16.096c0.058,1.09,0.122,2.178,0.188,3.27
		c1.508-0.006,2.404-0.596,3.689-0.836c-0.431-1.143-0.76-2.428-1.732-3.021C1218.141-16.442,1217.355-16.311,1216.671-16.096z"/>
</g>
<g>
	<path fill="#FEF0D5" stroke="#221714" stroke-width="2" stroke-miterlimit="10" d="M1150.253-105.413
		c-1.174-1.363-16.258-25.479-16.782-29.607l1.767-13.219c13.01,1.15,25.15,1.074,36.446,0l1.755,20.307
		C1169.139-121.741,1152.881-102.374,1150.253-105.413z"/>
</g>
<g>
	<path fill="#0E68AB" d="M1275.58-130.579c0,0,37.166,61.695,39.588,69.611"/>
	<path fill="#0E68AB" d="M1275.58-130.579c3.997,5.389,7.708,10.951,11.311,16.58c3.619,5.617,7.064,11.342,10.459,17.098
		c3.338,5.787,6.621,11.609,9.683,17.559c1.548,2.967,3.027,5.973,4.451,9.006c1.353,3.059,2.843,6.098,3.683,9.369
		c-1.477-2.996-3.309-5.791-5.036-8.645l-5.224-8.533c-3.484-5.688-6.877-11.432-10.258-17.184
		c-3.331-5.779-6.66-11.563-9.848-17.43C1281.594-118.62,1278.468-124.524,1275.58-130.579z"/>
</g>
<path fill="#0E68AB" stroke="#221714" stroke-width="2" stroke-miterlimit="10" d="M1228.092-120.553
	c10.785,17.615-61.035,81.342-85.054,84.027c-31.174,3.447-65.436-100.311-65.436-100.311s31.631-7.453,44.719,2.736
	c13.083,10.207,22.973,64.262,22.973,64.262s32.805-54.246,42.967-57.738C1198.422-131.065,1224.025-127.176,1228.092-120.553z"/>
<g>
	<path fill="#FFFFFF" d="M1083.471-139.739c4.015,8.85,8.005,17.701,12.204,26.453c4.139,8.777,8.39,17.502,12.796,26.129
		c4.456,8.602,8.985,17.18,14.116,25.33c2.577,4.057,5.246,8.086,8.348,11.613c1.543,1.717,3.256,3.42,5.047,4.301
		c0.898,0.434,1.68,0.531,2.213,0.27c0.318-0.137,0.486-0.297,1.014-0.803c0.507-0.463,0.986-0.863,1.496-1.262
		c4.054-3.07,8.361-5.355,12.618-7.73l12.762-6.996c8.457-4.686,16.682-9.764,24.354-15.58c7.638-5.838,14.717-12.48,20.418-20.244
		c5.779-7.697,9.951-16.607,12.171-26.074c-1.526,9.615-5.46,18.82-10.919,26.957c-5.51,8.129-12.521,15.166-20.168,21.281
		c-7.635,6.154-15.961,11.359-24.396,16.234c-4.223,2.436-8.51,4.74-12.743,7.094c-4.205,2.363-8.49,4.699-12.174,7.518
		c-0.449,0.348-0.904,0.727-1.295,1.08c-0.346,0.324-1.061,1.041-1.883,1.367c-0.822,0.363-1.773,0.475-2.593,0.357
		c-0.831-0.105-1.56-0.371-2.212-0.688c-2.572-1.32-4.304-3.203-5.994-5.066c-3.285-3.797-6.004-7.9-8.57-12.074
		c-5.07-8.377-9.563-17.031-13.783-25.803C1097.841-103.608,1090.331-121.557,1083.471-139.739z"/>
</g>
<path fill="#FEF0D5" stroke="#000000" stroke-width="2" stroke-miterlimit="10" d="M2133.633-151.072
	c0,0-21.793-25.582-15.996-36.913s-28.145,5.629-9.595,22.788c0,0-40.241,4.192-32.897,13.557c0,0-19.143,11.918-4.258,14.071
	c0,0-3.957,8.51,5.803,6.626c0,0,42.434,21.783,53.219-9.105l-5.033,8.86c0,0,99.621,49.5,108.691,4.023
	c0,0-2.821-12.162-13.387-14.055C2220.18-141.219,2158.848-136.937,2133.633-151.072z"/>
<path fill="#FEF0D5" stroke="#000000" stroke-width="2" stroke-miterlimit="10" d="M2544.696-207.29c0,0,4.988-7.277,9.894-16.198
	c0,0,13.417-30.813,4.578-39.971c-8.841-9.158,28.565-2.791,15.804,19.02c0,0,39.72-7.684,35.414,3.411
	c0,0,21.783,5.843,8.16,12.229c0,0,6.263,6.994-3.625,8.024c0,0-33.238,33.079-53.57,6.75c0,0,8.828,8.363,14.391,9.775
	c0,0-84.851,80.08-93.272,45.751C2482.469-158.499,2523.334-186.734,2544.696-207.29z"/>
<path fill="#FFFFFF" stroke="#221714" stroke-width="2" stroke-miterlimit="10" d="M2253.01,54.774l190.279,16.422
	c1.855-21.018-2.368-10.322-0.464-32.449c2.346-27.143,0.085-72.314,8.137-94.258c5.479-14.908,32.448-27.973,43.719-38.955
	c14.053-13.658,27.155-29.7,39.79-48.755l-59.919-65.507c-13.839,19.232-29.599,35.773-45.469,49.247
	c-46.813-1.595-91.734,15.439-139.117,16.493c-23.863,0.531-45.972-6.78-69.717-12.521l-41.479,68.825
	c1.399,0.315,2.791,0.605,4.188,0.921c23.636,5.31,43.675,17.285,69.152,21.47C2246.46-13.581,2256.913,4.338,2253.01,54.774z"/>
<path fill="#0E68AB" stroke="#231815" stroke-width="2" stroke-miterlimit="10" d="M2328.466,23.368
	c10.711-4.331,37.501,21.538,37.501,21.538c20.648-6.924-3.742-109.292-3.742-109.292
	C2362.159-54.789,2328.466,23.368,2328.466,23.368z"/>
<path fill="#0E68AB" stroke="#FFFFFF" stroke-width="2" stroke-miterlimit="10" d="M1194.185-409.734
	c7.938,1.275,29.915,18.436,29.915,18.436"/>
<g>
	<path fill="#FFFFFF" d="M2324.915-104.537c6.724-10.453,56.14-10.835,56.14-10.835"/>
	<path fill="#0E68AB" d="M2366.587-113.583c-4.809,0.558-9.611,1.04-14.384,1.659c-4.779,0.571-9.534,1.255-14.226,2.165
		c-2.335,0.483-4.666,1.006-6.914,1.764c-2.231,0.759-4.492,1.647-6.15,3.458c1.107-2.261,3.396-3.696,5.548-4.872
		c2.225-1.138,4.558-2.009,6.924-2.716c4.733-1.431,9.584-2.262,14.434-2.897c4.861-0.569,9.732-0.923,14.612-0.984
		c4.877-0.076,9.76,0.055,14.624,0.635C2376.215-114.66,2371.397-114.114,2366.587-113.583z"/>
</g>
<g>
	<path fill="#0E68AB" d="M2469.867-199.334c2.763-1.504,60.248,65.591,60.248,65.591"/>
	<path fill="#0E68AB" d="M2514.6-149.821c-5.075-5.44-10.028-10.985-14.984-16.521c-4.913-5.576-9.823-11.153-14.671-16.781
		l-7.303-8.413c-1.214-1.409-2.449-2.794-3.696-4.167c-0.624-0.685-1.258-1.364-1.912-2.017c-0.323-0.33-0.656-0.652-1-0.956
		c-0.352-0.268-0.699-0.674-1.163-0.658c0.477-0.095,0.903,0.258,1.3,0.467c0.402,0.246,0.791,0.516,1.172,0.791
		c0.754,0.558,1.481,1.151,2.204,1.748c1.437,1.199,2.816,2.463,4.195,3.722c2.726,2.553,5.393,5.162,7.995,7.829
		c5.229,5.313,10.252,10.815,15.214,16.36c4.919,5.592,9.777,11.227,14.48,17c4.713,5.763,9.329,11.609,13.685,17.674
		C2524.78-138.966,2519.656-144.365,2514.6-149.821z"/>
</g>
<g>
	<path fill="#0E68AB" stroke="#0E68AB" stroke-width="2" stroke-miterlimit="10" d="M2410.854-72.275
		c8.021-1.217,14.95,2.561,18.626,6.855c2.629,3.106,5.028,8.112,4.88,14.527c-0.121,5.313-2.446,9.521-5.339,12.789
		c-3,3.345-7.031,5.93-12.082,6.611c-8.786,1.172-15.787-2.909-19.615-7.921c-1.94-2.511-3.461-5.657-3.992-9.741
		c-1.182-9.349,3.579-16.692,9.582-20.339C2405.228-70.866,2407.818-71.816,2410.854-72.275z M2401.854-66.32
		c-4.223,3.57-7.493,9.417-6.505,17.057c1.283,9.797,10.222,17.264,21.323,15.753c8.392-1.138,15.235-8.736,15.687-16.929
		c0.529-9.644-5.022-15.403-10.388-18.121c-2.749-1.369-6.648-2.253-10.524-1.737C2407.309-69.708,2404.326-68.388,2401.854-66.32z"
		/>
	<path fill="#0E68AB" stroke="#0E68AB" stroke-miterlimit="10" d="M2411.157-67.167c2.195-0.332,5.342-0.212,7.179,0.37
		c5.396,1.754,10.208,6.864,10.625,14.037c0.686,12.048-11.782,19.706-21.896,14.971c-4.654-2.166-9.078-7.174-8.928-14.624
		c0.074-3.971,1.451-6.473,2.786-8.392c1.538-2.207,3.666-4.147,6.249-5.347C2408.161-66.614,2409.253-66.838,2411.157-67.167z
		 M2402.172-60.713c-4.162,5.561-3.495,14.118,1.248,18.925c1.301,1.34,2.991,2.327,4.843,3c0.267-1.151,0.853-2.014,1.058-3.174
		c-8.884-2.803-8.84-18.098,0.389-20.579c0.065,1.384,0.158,2.769,0.235,4.176c0.825-0.039,1.654-0.099,2.482-0.136
		c-0.151-2.517-0.295-5.08-0.431-7.622C2407.634-65.611,2404.235-63.452,2402.172-60.713z M2427.6-54.689
		c-1.064-6.298-7.377-11.695-13.897-11.499c0.131,2.493,0.28,5.035,0.445,7.604c0.963,0.184,1.558-0.045,2.314-0.136
		c0.03-1.368-0.383-3.093-0.084-4.22c4.317,1.259,7.789,4.688,8.199,9.972c0.276,3.369-1.047,6.573-2.936,8.572
		c-0.773,0.833-1.969,1.154-2.521,2.176c0.353,0.974,0.945,1.69,1.242,2.746C2425.503-42.304,2428.787-47.698,2427.6-54.689z
		 M2408.298-59.82c-0.167,0.065-0.343,0.176-0.452,0.317c-2.282,1.851-3.925,5.322-3.188,9.368c0.516,2.866,2.603,5.217,4.712,6.131
		C2408.956-49.216,2408.952-54.887,2408.298-59.82z M2418.829-44.537c5.478-2.533,4.78-13.954-0.909-15.84
		C2418.229-55.086,2418.531-49.825,2418.829-44.537z M2410.397-50.607c0.814-0.035,1.654-0.072,2.47-0.133
		c-0.108-2.018-0.22-4.037-0.343-6.059c-0.831,0.062-1.656,0.099-2.485,0.157C2410.151-54.624,2410.282-52.6,2410.397-50.607z
		 M2414.581-50.827c0.775-0.065,1.557-0.089,2.327-0.133c-0.111-2.019-0.225-4.037-0.354-6.082c-0.764,0.067-1.544,0.09-2.325,0.132
		C2414.349-54.867,2414.461-52.847,2414.581-50.827z M2410.818-43.138c0.813,0.141,1.437,0.479,2.51,0.298
		c-0.114-1.997-0.236-4.019-0.349-6.038c-0.588-0.287-1.688,0.002-2.498-0.003C2410.588-46.974,2410.705-45.07,2410.818-43.138z
		 M2415.037-42.907c1.012-0.008,1.532-0.405,2.295-0.61c-0.105-1.907-0.21-3.812-0.32-5.762c-0.775,0.066-1.555,0.086-2.327,0.132
		C2414.787-47.062,2414.91-44.973,2415.037-42.907z M2410.77-41.257c-0.31,1.037-0.759,1.962-1.073,3.018
		c1.06,0.47,2.397,0.62,3.926,0.551c-0.064-1.091-0.132-2.18-0.199-3.27C2412.53-41.068,2411.686-41.211,2410.77-41.257z
		 M2415.14-41.07c0.057,1.09,0.122,2.177,0.188,3.27c1.509-0.007,2.405-0.596,3.689-0.836c-0.431-1.143-0.76-2.429-1.731-3.021
		C2416.609-41.417,2415.823-41.285,2415.14-41.07z"/>
</g>
<g>
	<path fill="#FEF0D5" stroke="#221714" stroke-width="2" stroke-miterlimit="10" d="M2317.197-147.155l1.755-20.307
		c11.297,1.075,23.437,1.151,36.446,0l1.767,13.22c-0.524,4.127-15.607,28.242-16.781,29.607
		C2337.756-121.595,2321.497-140.963,2317.197-147.155z"/>
</g>
<g>
	<path fill="#0E68AB" d="M2189.35-80.191c2.424-7.917,39.588-69.611,39.588-69.611"/>
	<path fill="#0E68AB" d="M2219.719-131.983c-3.188,5.868-6.518,11.652-9.849,17.432c-3.381,5.753-6.773,11.497-10.259,17.185
		l-5.223,8.533c-1.727,2.852-3.561,5.647-5.037,8.643c0.841-3.271,2.332-6.311,3.684-9.369c1.424-3.033,2.904-6.04,4.451-9.006
		c3.063-5.95,6.344-11.771,9.684-17.559c3.394-5.757,6.839-11.479,10.458-17.097c3.603-5.63,7.313-11.19,11.31-16.581
		C2226.051-143.748,2222.925-137.841,2219.719-131.983z"/>
</g>
<path fill="#0E68AB" stroke="#221714" stroke-width="2" stroke-miterlimit="10" d="M2316.258-146.798
	c10.163,3.491,42.968,57.735,42.968,57.735s9.89-54.052,22.972-64.26c13.088-10.189,44.719-2.738,44.719-2.738
	S2392.654-52.302,2361.48-55.75c-24.019-2.686-95.839-66.413-85.053-84.026C2280.493-146.401,2306.098-150.289,2316.258-146.798z"/>
<g>
	<path fill="#FFFFFF" d="M2398.223-105.297c-4.221,8.772-8.713,17.425-13.783,25.802c-2.566,4.176-5.285,8.276-8.57,12.075
		c-1.69,1.862-3.422,3.746-5.993,5.065c-0.653,0.315-1.383,0.581-2.212,0.688c-0.819,0.119-1.771,0.007-2.593-0.358
		c-0.823-0.324-1.538-1.04-1.884-1.364c-0.391-0.355-0.845-0.732-1.295-1.081c-3.684-2.819-7.969-5.155-12.174-7.518
		c-4.232-2.355-8.521-4.659-12.742-7.093c-8.437-4.878-16.762-10.081-24.397-16.237c-7.646-6.112-14.658-13.149-20.168-21.279
		c-5.459-8.137-9.394-17.342-10.919-26.956c2.22,9.464,6.393,18.375,12.17,26.071c5.702,7.767,12.781,14.406,20.419,20.244
		c7.672,5.818,15.896,10.896,24.354,15.583l12.761,6.995c4.257,2.376,8.564,4.659,12.619,7.729c0.509,0.401,0.988,0.8,1.495,1.264
		c0.527,0.504,0.695,0.666,1.013,0.802c0.534,0.262,1.316,0.166,2.215-0.27c1.789-0.879,3.503-2.582,5.046-4.302
		c3.102-3.526,5.771-7.555,8.348-11.61c5.132-8.152,9.66-16.729,14.116-25.33c4.407-8.628,8.658-17.352,12.796-26.131
		c4.199-8.75,8.189-17.602,12.204-26.452C2414.188-140.781,2406.677-122.832,2398.223-105.297z"/>
</g>
<path fill="#FDEACC" stroke="#231815" stroke-width="2" stroke-miterlimit="10" d="M2431.616-283.484
	c0.63,3.812,1.152,7.758,1.537,11.87c0,0-0.088,17.62-5.052,40.611c12.752-2.413,22.385-13.443,22.385-26.694
	C2450.486-269.7,2442.581-279.876,2431.616-283.484z"/>
<path fill="#FDEACC" stroke="#231815" stroke-width="2" stroke-miterlimit="10" d="M2441.563-291.989
	c0,0-0.626,127.93-110.375,132.671c0,0-86.241-26.063-92.136-72.26c0,0-27.525-14.217-27.777-31.982
	c-0.254-17.771,14.674-31.984,31.954-14.217c17.281,17.77,3.187-108.978,107.262-112.532
	C2350.491-390.309,2432.472-380.833,2441.563-291.989z"/>
<linearGradient id="SVGID_11_" gradientUnits="userSpaceOnUse" x1="2233.9307" y1="-316.9473" x2="2449.6865" y2="-316.9473">
	<stop  offset="0" style="stop-color:#E83828"/>
	<stop  offset="0.0156" style="stop-color:#DB3626"/>
	<stop  offset="0.0666" style="stop-color:#B73221"/>
	<stop  offset="0.1241" style="stop-color:#972D1C"/>
	<stop  offset="0.1875" style="stop-color:#7B2A18"/>
	<stop  offset="0.2592" style="stop-color:#652715"/>
	<stop  offset="0.3429" style="stop-color:#542512"/>
	<stop  offset="0.4463" style="stop-color:#492310"/>
	<stop  offset="0.5915" style="stop-color:#42220F"/>
	<stop  offset="0.9945" style="stop-color:#40220F"/>
</linearGradient>
<path fill="url(#SVGID_11_)" stroke="#231815" stroke-width="2" stroke-miterlimit="10" d="M2243.808-233.374
	c0,0-4.413-48.586,34.88-65.518c39.291-16.929,73.581-48.188,74.02-66.42c0,0,16.491,40.374,0,58.607
	c0,0,24.227-20.839,34.473-49.492c0,0,10.04,51.191-6.789,56.854c0,0,34.26-14.21,35.126-40.257c0,0,27.656,49.501,24.316,69.037
	c0,0,49.485-108.212-73.335-128.261C2366.498-398.822,2191.102-429.173,2243.808-233.374z"/>
<g>
	<path fill="#FFF100" stroke="#231815" stroke-width="2" stroke-miterlimit="10" d="M2367.565-395.493
		c63.305,10.333,80.834,44.087,82.96,74.374c2.176-32.976-9.946-76.05-82.96-87.969c0,0-137.45-23.778-132.423,106.606
		C2239.907-417.581,2367.565-395.493,2367.565-395.493z"/>
</g>
<path fill="none" stroke="#221E1F" stroke-width="2" d="M2223.893-263.143c0,0,11.285-3.688,9.967,9.111"/>
<path fill="none" stroke="#221E1F" stroke-width="2" d="M183.499,224.146c0,0,11.286-3.688,9.968,9.111"/>
<path fill="none" stroke="#221E1F" stroke-width="2" d="M2348.72-238.324c0,0,9.303-11.639,16.424,1.341
	c0,0,2.164,6.367-7.331,13.356"/>
<path fill="#FFFFFF" stroke="#221E1F" stroke-width="2" d="M2314.24-209.041c0,0,37.667,10.623,59.833-3.37
	C2374.073-212.411,2353.511-155.079,2314.24-209.041z"/>
<ellipse transform="matrix(-0.9601 -0.2796 0.2796 -0.9601 4589.7617 135.6455)" fill="#FFFFFF" stroke="#221E1F" stroke-width="2" cx="2304.554" cy="-259.492" rx="19.009" ry="18.515"/>
<path fill="none" stroke="#221E1F" stroke-width="2" d="M2322.028-273.939c0,0-19.165-22.003-38.33,1.206l-2.951-2.811"/>
<ellipse transform="matrix(0.9601 -0.2796 0.2796 0.9601 168.0349 658.0277)" fill="#FFFFFF" stroke="#221E1F" stroke-width="2" cx="2390.839" cy="-260.06" rx="19.008" ry="18.515"/>
<g>
	
		<linearGradient id="SVGID_12_" gradientUnits="userSpaceOnUse" x1="2330.8535" y1="-315.1338" x2="2356.1641" y2="-315.1338" gradientTransform="matrix(1.0038 0.0021 0.0017 1.0935 33.7138 79.9139)">
		<stop  offset="0" style="stop-color:#727171"/>
		<stop  offset="0.0876" style="stop-color:#5A5655"/>
		<stop  offset="0.1863" style="stop-color:#463F3E"/>
		<stop  offset="0.2996" style="stop-color:#362E2B"/>
		<stop  offset="0.4342" style="stop-color:#2B211F"/>
		<stop  offset="0.6113" style="stop-color:#251A17"/>
		<stop  offset="0.9945" style="stop-color:#231815"/>
	</linearGradient>
	<path fill="url(#SVGID_12_)" stroke="#221E1F" stroke-width="2" d="M2398.289-260.07c0.207,8.709-5.314,15.908-12.325,16.077
		c-7.016,0.17-12.867-6.755-13.07-15.465c-0.207-8.71,5.313-15.907,12.325-16.077
		C2392.233-275.704,2398.083-268.781,2398.289-260.07z"/>
	
		<ellipse transform="matrix(0.9997 -0.0242 0.0242 0.9997 7.0798 57.5912)" fill="#FFFFFF" stroke="#221E1F" stroke-width="2" cx="2382.18" cy="-263.617" rx="3.61" ry="3.933"/>
	<path fill="#FFFFFF" stroke="#221E1F" stroke-width="2" d="M2381.134-257.277c0.031,1.245-0.873,2.278-2.014,2.306
		c-1.142,0.026-2.094-0.962-2.122-2.206c-0.031-1.242,0.872-2.275,2.015-2.303C2380.154-259.507,2381.104-258.521,2381.134-257.277z
		"/>
</g>
<g>
	
		<linearGradient id="SVGID_13_" gradientUnits="userSpaceOnUse" x1="2246.1924" y1="-314.7236" x2="2271.5029" y2="-314.7236" gradientTransform="matrix(1.0038 0.0021 0.0017 1.0935 33.7138 79.9139)">
		<stop  offset="0" style="stop-color:#727171"/>
		<stop  offset="0.0876" style="stop-color:#5A5655"/>
		<stop  offset="0.1863" style="stop-color:#463F3E"/>
		<stop  offset="0.2996" style="stop-color:#362E2B"/>
		<stop  offset="0.4342" style="stop-color:#2B211F"/>
		<stop  offset="0.6113" style="stop-color:#251A17"/>
		<stop  offset="0.9945" style="stop-color:#231815"/>
	</linearGradient>
	<path fill="url(#SVGID_13_)" stroke="#221E1F" stroke-width="2" d="M2313.307-259.797c0.207,8.708-5.313,15.907-12.326,16.075
		c-7.013,0.171-12.864-6.754-13.069-15.464c-0.207-8.71,5.313-15.908,12.325-16.077
		C2307.251-275.432,2313.103-268.509,2313.307-259.797z"/>
	
		<ellipse transform="matrix(0.9997 -0.0242 0.0242 0.9997 7.0483 55.534)" fill="#FFFFFF" stroke="#221E1F" stroke-width="2" cx="2297.197" cy="-263.346" rx="3.61" ry="3.935"/>
	
		<ellipse transform="matrix(0.9997 -0.0238 0.0238 0.9997 6.7769 54.6098)" fill="#FFFFFF" stroke="#221E1F" stroke-width="2" cx="2294.083" cy="-256.956" rx="2.069" ry="2.256"/>
</g>
<path fill="none" stroke="#221E1F" stroke-width="2" d="M2372.478-273.685c0,0,19.165-22.001,38.33,1.208l2.951-2.812"/>
<path fill="none" stroke="#221E1F" stroke-width="2" d="M2332.434-290.512c0,0-29.466-14.542-60.59,6.423"/>
<path fill="none" stroke="#221E1F" stroke-width="2" d="M2419.053-285.819c0,0-25.832-20.131-56.956,0.832"/>
<g>
	<path fill="none" stroke="#221E1F" stroke-width="2" d="M318.154,257.224c0,0,10.695-13.381,18.885,1.539
		c0,0,2.486,7.322-8.43,15.361"/>
	<path fill="#FFFFFF" stroke="#221E1F" stroke-width="2" d="M285.395,292.142c0,0,34.027,9.6,54.057-3.043
		C339.451,289.099,320.865,340.894,285.395,292.142z"/>
	<path fill="#FFFFFF" stroke="#221E1F" stroke-width="2" d="M246.395,226.776c-3.285,11.285,3.443,23.174,15.031,26.549
		c11.59,3.371,23.646-3.041,26.934-14.332c3.288-11.285-3.441-23.174-15.029-26.547
		C261.742,209.071,249.683,215.489,246.395,226.776z"/>
	<path fill="none" stroke="#221E1F" stroke-width="2" d="M287.469,216.272c0,0-22.034-25.293-44.068,1.389l-3.392-3.23"/>
	<path fill="#FFFFFF" stroke="#221E1F" stroke-width="2" d="M387.563,226.124c3.285,11.287-3.443,23.174-15.033,26.547
		c-11.588,3.377-23.646-3.039-26.934-14.328c-3.287-11.287,3.445-23.174,15.031-26.549
		C372.215,208.419,384.273,214.833,387.563,226.124z"/>
	<g>
		
			<linearGradient id="SVGID_14_" gradientUnits="userSpaceOnUse" x1="321.8887" y1="139.2456" x2="350.9883" y2="139.2456" gradientTransform="matrix(1.0038 0.0021 0.0017 1.0935 33.7138 79.9139)">
			<stop  offset="0" style="stop-color:#727171"/>
			<stop  offset="0.0876" style="stop-color:#5A5655"/>
			<stop  offset="0.1863" style="stop-color:#463F3E"/>
			<stop  offset="0.2996" style="stop-color:#362E2B"/>
			<stop  offset="0.4342" style="stop-color:#2B211F"/>
			<stop  offset="0.6113" style="stop-color:#251A17"/>
			<stop  offset="0.9945" style="stop-color:#231815"/>
		</linearGradient>
		<path fill="url(#SVGID_14_)" stroke="#221E1F" stroke-width="2" d="M386.266,232.532c0.238,10.014-6.107,18.293-14.172,18.486
			c-8.063,0.193-14.789-7.768-15.025-17.781s6.107-18.291,14.17-18.484C379.303,214.556,386.031,222.517,386.266,232.532z"/>
		
			<ellipse transform="matrix(0.9997 -0.024 0.024 0.9997 -5.3767 8.8912)" fill="#FFFFFF" stroke="#221E1F" stroke-width="2" cx="367.745" cy="228.454" rx="4.151" ry="4.525"/>
		
			<ellipse transform="matrix(0.9997 -0.0238 0.0238 0.9997 -5.514 8.7422)" fill="#FFFFFF" stroke="#221E1F" stroke-width="2" cx="364.164" cy="235.802" rx="2.378" ry="2.593"/>
	</g>
	<g>
		
			<linearGradient id="SVGID_15_" gradientUnits="userSpaceOnUse" x1="115.7212" y1="144.3213" x2="144.8203" y2="144.3213" gradientTransform="matrix(1.0776 3.000000e-004 -1.000000e-004 1.0935 131.8709 76.8722)">
			<stop  offset="0" style="stop-color:#727171"/>
			<stop  offset="0.0876" style="stop-color:#5A5655"/>
			<stop  offset="0.1863" style="stop-color:#463F3E"/>
			<stop  offset="0.2996" style="stop-color:#362E2B"/>
			<stop  offset="0.4342" style="stop-color:#2B211F"/>
			<stop  offset="0.6113" style="stop-color:#251A17"/>
			<stop  offset="0.9945" style="stop-color:#231815"/>
		</linearGradient>
		<path fill="url(#SVGID_15_)" stroke="#221E1F" stroke-width="2" d="M287.909,234.351c0.237,10.01-6.59,18.301-15.245,18.508
			c-8.658,0.211-15.865-7.74-16.1-17.756c-0.238-10.014,6.589-18.301,15.245-18.508
			C280.468,216.386,287.676,224.335,287.909,234.351z"/>
		
			<ellipse transform="matrix(0.9997 -0.0239 0.0239 0.9997 -5.424 6.4673)" fill="#FFFFFF" stroke="#221E1F" stroke-width="2" cx="268.035" cy="230.303" rx="4.457" ry="4.524"/>
		<path fill="#FFFFFF" stroke="#221E1F" stroke-width="2" d="M266.731,237.595c0.032,1.43-1.083,2.621-2.493,2.652
			c-1.408,0.035-2.58-1.098-2.613-2.529c-0.033-1.43,1.08-2.621,2.494-2.652C265.526,235.03,266.697,236.165,266.731,237.595z"/>
	</g>
	<path fill="none" stroke="#221E1F" stroke-width="2" d="M345.469,216.567c0,0,22.033-25.293,44.068,1.389l3.393-3.232"/>
	<path fill="none" stroke="#221E1F" stroke-width="2" d="M299.433,197.222c0,0-33.881-16.719-69.663,7.385"/>
	<path fill="none" stroke="#221E1F" stroke-width="2" d="M399.018,202.618c0,0-29.699-23.146-65.484,0.955"/>
</g>
<path fill="#FDEACC" stroke="#231815" stroke-width="2" stroke-miterlimit="10" d="M1262.621-281.127
	c0.712,4.307,1.303,8.771,1.736,13.423c0,0-0.096,19.927-5.711,45.928c14.42-2.729,25.316-15.204,25.316-30.19
	C1283.963-265.538,1275.021-277.049,1262.621-281.127z"/>
<path fill="#FDEACC" stroke="#231815" stroke-width="2" stroke-miterlimit="10" d="M1273.871-290.748
	c0,0-0.709,144.679-124.824,150.041c0,0-97.53-29.475-104.194-81.721c0,0-31.129-16.075-31.415-36.169
	c-0.287-20.095,16.594-36.17,36.136-16.073c19.545,20.093,3.605-123.246,121.303-127.265
	C1170.876-401.936,1263.588-391.221,1273.871-290.748z"/>
<linearGradient id="SVGID_16_" gradientUnits="userSpaceOnUse" x1="1039.0586" y1="-318.9727" x2="1283.0566" y2="-318.9727">
	<stop  offset="0" style="stop-color:#E83828"/>
	<stop  offset="0.0285" style="stop-color:#E33227"/>
	<stop  offset="0.1377" style="stop-color:#D52125"/>
	<stop  offset="0.2738" style="stop-color:#CA1624"/>
	<stop  offset="0.4646" style="stop-color:#C50F23"/>
	<stop  offset="0.9945" style="stop-color:#C30D23"/>
</linearGradient>
<path fill="url(#SVGID_16_)" stroke="#231815" stroke-width="2" stroke-miterlimit="10" d="M1050.229-224.459
	c0,0-4.99-54.944,39.446-74.092c44.436-19.147,126.532-20.421,115.016-0.512c0,0,38.743-16.069,39.724-45.524
	c0,0,31.277,55.98,27.499,78.072c0,0,55.963-122.374-82.937-145.05C1188.977-411.564,990.624-445.889,1050.229-224.459z"/>
<g>
	<path fill="#FFFFFF" stroke="#231815" stroke-width="2" stroke-miterlimit="10" d="M1191.594-393.393
		c60.717,9.912,84.197,47.88,91.396,77.346c3.896-37.846-22.033-96.684-95.302-108.646c0,0-176.74-17.683-144.709,167.473
		C1025.425-422.144,1191.594-393.393,1191.594-393.393z"/>
</g>
<path fill="none" stroke="#221E1F" stroke-width="2" d="M1027.705-258.125c0,0,12.763-4.17,11.274,10.305"/>
<path fill="none" stroke="#221E1F" stroke-width="2" d="M1168.873-230.06c0,0,10.52-13.159,18.576,1.52c0,0,2.446,7.2-8.292,15.105"
	/>
<path fill="#FFFFFF" stroke="#221E1F" stroke-width="2" d="M1129.882-196.939c0,0,42.597,12.013,67.664-3.815
	C1197.546-200.755,1174.292-135.915,1129.882-196.939z"/>
<ellipse transform="matrix(-0.9601 -0.2795 0.2795 -0.9601 2264.2483 -185.0939)" fill="#FFFFFF" stroke="#221E1F" stroke-width="2" cx="1118.926" cy="-253.996" rx="21.496" ry="20.938"/>
<path fill="none" stroke="#221E1F" stroke-width="2" d="M1138.689-270.337c0,0-21.674-24.88-43.347,1.366l-3.338-3.178"/>
<ellipse transform="matrix(0.9601 -0.2796 0.2796 0.9601 119.6851 329.9232)" fill="#FFFFFF" stroke="#221E1F" stroke-width="2" cx="1216.506" cy="-254.637" rx="21.496" ry="20.938"/>
<g>
	
		<linearGradient id="SVGID_17_" gradientUnits="userSpaceOnUse" x1="1170.9346" y1="-307.916" x2="1199.5586" y2="-307.916" gradientTransform="matrix(1.0038 0.0021 0.0017 1.0935 33.7138 79.9139)">
		<stop  offset="0" style="stop-color:#727171"/>
		<stop  offset="0.0876" style="stop-color:#5A5655"/>
		<stop  offset="0.1863" style="stop-color:#463F3E"/>
		<stop  offset="0.2996" style="stop-color:#362E2B"/>
		<stop  offset="0.4342" style="stop-color:#2B211F"/>
		<stop  offset="0.6113" style="stop-color:#251A17"/>
		<stop  offset="0.9945" style="stop-color:#231815"/>
	</linearGradient>
	<path fill="url(#SVGID_17_)" stroke="#221E1F" stroke-width="2" d="M1237.3-254.648c0.233,9.848-6.008,17.99-13.938,18.181
		c-7.933,0.19-14.549-7.639-14.781-17.489c-0.233-9.85,6.01-17.99,13.939-18.182C1230.451-272.329,1237.068-264.5,1237.3-254.648z"
		/>
	<path fill="#FFFFFF" stroke="#221E1F" stroke-width="2" d="M1223.164-258.758c0.059,2.453-1.723,4.492-3.977,4.545
		c-2.255,0.054-4.129-1.893-4.188-4.351c-0.058-2.456,1.723-4.49,3.979-4.547C1221.232-263.165,1223.107-261.216,1223.164-258.758z"
		/>
	<path fill="#FFFFFF" stroke="#221E1F" stroke-width="2" d="M1217.9-251.49c0.033,1.408-0.987,2.575-2.279,2.605
		c-1.291,0.03-2.366-1.085-2.4-2.494c-0.032-1.405,0.988-2.574,2.281-2.604C1216.791-254.014,1217.867-252.898,1217.9-251.49z"/>
</g>
<g>
	
		<linearGradient id="SVGID_18_" gradientUnits="userSpaceOnUse" x1="1073.4316" y1="-307.4482" x2="1102.0547" y2="-307.4482" gradientTransform="matrix(1.0038 0.0021 0.0017 1.0935 33.7138 79.9139)">
		<stop  offset="0" style="stop-color:#727171"/>
		<stop  offset="0.0876" style="stop-color:#5A5655"/>
		<stop  offset="0.1863" style="stop-color:#463F3E"/>
		<stop  offset="0.2996" style="stop-color:#362E2B"/>
		<stop  offset="0.4342" style="stop-color:#2B211F"/>
		<stop  offset="0.6113" style="stop-color:#251A17"/>
		<stop  offset="0.9945" style="stop-color:#231815"/>
	</linearGradient>
	<path fill="url(#SVGID_18_)" stroke="#221E1F" stroke-width="2" d="M1139.427-254.342c0.234,9.848-6.009,17.989-13.939,18.181
		c-7.932,0.191-14.549-7.639-14.78-17.488c-0.233-9.85,6.009-17.992,13.938-18.183
		C1132.578-272.023,1139.195-264.195,1139.427-254.342z"/>
	
		<ellipse transform="matrix(0.9997 -0.024 0.024 0.9997 6.5337 26.8749)" fill="#FFFFFF" stroke="#221E1F" stroke-width="2" cx="1121.21" cy="-258.354" rx="4.083" ry="4.45"/>
	<path fill="#FFFFFF" stroke="#221E1F" stroke-width="2" d="M1120.026-251.186c0.033,1.409-0.987,2.578-2.279,2.606
		c-1.291,0.032-2.366-1.083-2.398-2.491c-0.034-1.407,0.986-2.574,2.279-2.605C1118.919-253.708,1119.993-252.591,1120.026-251.186z
		"/>
</g>
<path fill="none" stroke="#221E1F" stroke-width="2" d="M1195.74-270.047c0,0,21.674-24.881,43.347,1.366l3.339-3.18"/>
<path fill="none" stroke="#221E1F" stroke-width="2" d="M1150.457-289.077c0,0-33.326-16.444-68.524,7.265"/>
<path fill="none" stroke="#221E1F" stroke-width="2" d="M1248.413-283.769c0,0-29.214-22.768-64.411,0.939"/>
</svg>
